<svg  viewBox="0 0 131 128" fill="none" xmlns="http://www.w3.org/2000/svg">
<g clip-path="url(#clip0_508_608)">
<path fill-rule="evenodd" clip-rule="evenodd" d="M127.976 110.933C126.714 114.091 123.798 118.528 119.621 121.685C117.228 123.477 114.356 125.227 110.439 126.379C106.262 127.616 101.084 128 94.6437 128H35.8993C29.4592 128 24.3245 127.573 20.1036 126.379C16.1873 125.227 13.3154 123.52 10.9221 121.685C6.78824 118.571 3.82926 114.091 2.56735 110.933C0.0435143 104.576 0 97.3653 0 92.8V35.2C0 30.6347 0.0435143 23.424 2.56735 17.0667C3.82926 13.9093 6.74472 9.472 10.9221 6.31467C13.3154 4.52267 16.1873 2.77333 20.1036 1.62133C24.3245 0.426667 29.4592 0 35.8993 0H94.6437C101.084 0 106.219 0.426667 110.439 1.62133C114.356 2.77333 117.228 4.48 119.621 6.31467C123.755 9.42933 126.714 13.9093 127.976 17.0667C130.543 23.424 130.543 30.6773 130.543 35.2V92.8C130.543 97.3653 130.5 104.576 127.976 110.933Z" fill="url(#paint0_linear_508_608)"/>
<path d="M76.4543 77.2693C76.2803 75.7333 75.7581 74.624 74.7138 73.6C72.7556 71.5946 69.318 70.272 65.2711 70.272C61.2243 70.272 57.7867 71.552 55.8285 73.6C54.8277 74.6666 54.262 75.7333 54.088 77.2693C53.7398 80.256 53.9574 82.816 54.3055 86.9546C54.6536 90.88 55.3064 96.128 56.1331 101.419C56.7423 105.216 57.221 107.264 57.6561 108.715C58.3959 111.104 61.0503 113.152 65.2711 113.152C69.492 113.152 72.1899 111.061 72.8862 108.715C73.3213 107.264 73.8 105.216 74.4092 101.419C75.2359 96.0853 75.8887 90.88 76.2368 86.9546C76.6284 82.816 76.8025 80.256 76.4543 77.2693Z" fill="white"/>
<path d="M75.976 55.5094C75.976 61.3121 71.1894 66.0054 65.2714 66.0054C59.3535 66.0054 54.5669 61.3121 54.5669 55.5094C54.5669 49.7068 59.3535 45.0134 65.2714 45.0134C71.1894 45.0134 75.976 49.7494 75.976 55.5094Z" fill="white"/>
<path d="M65.1408 14.1654C40.1636 14.2507 19.7119 34.1333 19.3637 58.624C19.1027 78.464 32.0264 95.4453 50.0849 101.675C50.52 101.845 50.9552 101.461 50.9117 101.035C50.6941 99.4987 50.433 97.9627 50.2589 96.4267C50.1719 95.872 49.8238 95.4453 49.3451 95.1893C35.0724 89.088 25.1076 75.0507 25.2817 58.7947C25.4993 37.4613 43.2531 20.096 64.9668 19.9253C87.2026 19.7547 105.348 37.4187 105.348 59.1787C105.348 75.264 95.4268 89.088 81.2847 95.1893C80.7625 95.4027 80.4144 95.872 80.3709 96.4267C80.1533 97.9627 79.9357 99.4987 79.7182 101.035C79.6311 101.504 80.1098 101.845 80.5449 101.675C98.4293 95.5307 111.266 78.8053 111.266 59.1787C111.179 34.3467 90.5097 14.1227 65.1408 14.1654Z" fill="white"/>
<path d="M64.0964 29.0988C47.8221 29.6961 34.7678 42.8801 34.5502 58.8374C34.4196 69.3334 39.7719 78.6348 47.9961 84.1388C48.3877 84.3948 48.9534 84.0961 48.9534 83.6268C48.8229 81.7921 48.8229 80.1708 48.9099 78.4641C48.9534 77.9094 48.7359 77.3974 48.3007 77.0134C43.2966 72.4054 40.2506 65.8348 40.4246 58.5814C40.7727 45.7814 51.2597 35.3708 64.314 34.8588C78.4997 34.3041 90.1615 45.4828 90.1615 59.2214C90.1615 66.2188 87.1155 72.5334 82.2854 77.0134C81.8938 77.3974 81.6762 77.9094 81.6762 78.4641C81.7632 80.1281 81.7197 81.7494 81.6327 83.5841C81.5892 84.0534 82.1549 84.3948 82.59 84.0961C90.6837 78.6774 96.0359 69.5041 96.0359 59.1788C96.0795 42.1974 81.5892 28.4161 64.0964 29.0988Z" fill="white"/>
</g>
<defs>
<linearGradient id="paint0_linear_508_608" x1="65.2715" y1="0" x2="65.2715" y2="128" gradientUnits="userSpaceOnUse">
<stop stop-color="#F452FF"/>
<stop offset="1" stop-color="#832BC1"/>
</linearGradient>
<clipPath id="clip0_508_608">
<rect width="130.543" height="128" fill="white"/>
</clipPath>
</defs>
</svg>
