<svg  viewBox="0 0 153 50" fill="none" xmlns="http://www.w3.org/2000/svg">
<g clip-path="url(#clip0_519_4527)">
<path d="M50.265 14.339H50.8741L49.3363 19.4836H33.1778V19.1063C33.1778 19.1063 34.4322 19.0771 34.7886 18.967C35.1008 18.8796 35.3113 18.7491 35.4562 18.5679C35.6012 18.3867 35.6737 18.1613 35.7173 17.9002C35.7572 17.6675 35.7816 17.4323 35.7903 17.1964C35.7973 16.9283 35.7973 16.6305 35.7973 16.3768V6.14762C35.7973 5.90789 35.7973 5.07903 35.7903 4.22463H35.7973V3.50635C35.7973 2.99111 35.7973 2.33834 35.7173 1.98292C35.6305 1.46024 35.4126 1.08298 34.7881 0.914327C34.4327 0.80561 33.1774 0.774946 33.1774 0.774946V0.40094H49.3363L50.8741 5.5455H50.2645C50.0759 5.03722 49.8873 4.56565 49.7131 4.15958C48.6254 1.67814 47.3431 1.0249 45.658 0.916185C45.0847 0.865544 44.1838 0.836274 43.1979 0.836274H38.0826V8.8465H45.4475L44.8742 7.48986H45.4108L48.4944 13.1947L49.1258 14.3627H48.5892C48.3638 13.9636 48.132 13.5646 47.9141 13.1947C47.3701 12.2655 46.8985 11.4896 46.6806 11.1923C45.2868 9.30553 43.9236 9.2837 41.8269 9.2837H38.0826V19.0487H43.1979C44.1847 19.0487 45.0847 19.0195 45.6603 18.9688C47.3436 18.8601 48.6277 18.2069 49.7158 15.7254C49.8877 15.3189 50.0764 14.8473 50.265 14.339Z" fill="#F9FAF1"/>
<path d="M151.839 15.725C150.751 18.2064 149.467 18.8596 147.783 18.9684C147.21 19.019 146.31 19.0483 145.324 19.0483H140.21V9.28184H143.955C146.052 9.28184 147.416 9.30367 148.809 11.1904C149.027 11.4878 149.498 12.2641 150.043 13.1929C150.261 13.5646 150.493 13.9618 150.717 14.3609H151.255L150.624 13.1947L147.019 6.5193H146.612L146.598 6.52674L147.577 8.84976H140.21V0.836273H145.324C146.31 0.836273 147.21 0.865543 147.783 0.916185C149.467 1.0249 150.751 1.67814 151.839 4.15958C152.014 4.56565 152.202 5.03722 152.391 5.5455H153L151.461 0.40094H135.306V0.778198C135.306 0.778198 136.56 0.807468 136.916 0.917579C137.54 1.08437 137.758 1.46163 137.846 1.98617C137.925 2.34159 137.925 2.99436 137.925 3.5096V4.22463H137.918C137.925 5.08089 137.925 5.90789 137.925 6.14762V16.3782C137.925 16.6356 137.925 16.9278 137.915 17.1996C137.912 17.4352 137.888 17.67 137.846 17.9016C137.802 18.1627 137.726 18.3876 137.583 18.5683C137.44 18.7491 137.229 18.8847 136.917 18.9684C136.561 19.0771 135.306 19.1077 135.306 19.1077V19.485H151.461L152.999 14.3404H152.39C152.204 14.8473 152.014 15.3189 151.839 15.725Z" fill="#F9FAF1"/>
<path d="M76.648 18.8847V9.8626H69.7788V18.8847L72.4503 19.1031V19.485H64.8731V19.1031C64.8731 19.1031 66.1275 19.0762 66.4806 18.967C67.1078 18.803 67.3257 18.4211 67.4075 17.904C67.4897 17.549 67.4897 16.8948 67.4897 16.3773V3.97514C67.4897 3.26662 67.4897 2.33974 67.4075 1.98524C67.3257 1.46768 67.1078 1.08577 66.4806 0.922696C66.1266 0.813514 64.8731 0.786103 64.8731 0.786103V0.404663H72.4503V0.786103L69.7788 1.004V9.4268H76.648V1.004L73.9765 0.786103V0.404663H81.5816V0.786103C81.5816 0.786103 80.3272 0.813514 79.9732 0.922696C79.319 1.08577 79.1285 1.46768 79.0439 1.98524C78.9626 2.33974 78.9626 3.26662 78.9357 3.97514V16.3773C78.9626 16.8948 78.9626 17.549 79.0439 17.904C79.1262 18.4211 79.3167 18.803 79.9732 18.967C80.3272 19.0762 81.5816 19.1031 81.5816 19.1031V19.485H73.9765V19.1031L76.648 18.8847Z" fill="#F9FAF1"/>
<path d="M100.791 18.9121L96.92 8.55474L88.6886 13.3244L85.9897 18.8578L91.8233 19.1031V19.485H82.338V19.1031C82.338 19.1031 83.8098 19.0483 84.3274 18.8847C84.9272 18.6943 85.3904 18.3676 85.8267 17.7948C86.2625 17.1945 86.9445 15.9415 87.0258 15.8044L88.3616 12.9973L92.5318 4.41373C92.7771 3.92311 93.2404 2.88704 93.5405 2.09675C93.704 1.63215 93.6227 1.00632 92.6958 0.951966C92.3139 0.951966 88.2254 0.788426 88.2254 0.788426V0.404663H96.3207L102.045 15.6962C102.536 16.9771 103.189 18.6394 104.716 18.9391C105.343 19.0762 106.324 19.1031 106.324 19.1031V19.485H98.5015V19.1031L100.791 18.9121ZM96.7569 8.14589L94.3312 1.6879L89.0152 12.6158L96.7569 8.14589Z" fill="#F9FAF1"/>
<path d="M129.643 3.97514C129.643 3.26662 129.643 2.33974 129.561 1.98524C129.479 1.46768 129.261 1.08577 128.634 0.922696C128.28 0.813514 127.026 0.786103 127.026 0.786103V0.404663H134.549V0.786103C134.549 0.786103 133.295 0.813514 132.941 0.922696C132.314 1.08577 132.096 1.46768 132.012 1.98524C131.93 2.33974 131.93 3.26662 131.93 3.97514V15.9155C131.93 16.6249 131.93 17.5509 132.012 17.9058C132.094 18.4229 132.312 18.8048 132.941 18.9688C133.296 19.078 134.549 19.105 134.549 19.105V19.4869H127.026V19.105C127.026 19.105 128.281 19.078 128.634 18.9688C129.261 18.8048 129.479 18.4229 129.561 17.9058C129.643 17.5509 129.643 16.8967 129.643 16.3791V3.97514Z" fill="#F9FAF1"/>
<path d="M120.709 0.404663H126.27V0.786567C126.27 0.786567 125.016 0.813514 124.662 0.922696C124.007 1.08624 123.816 1.46768 123.708 1.98524C123.653 2.31279 123.653 2.91445 123.625 3.40321L123.653 19.485H123.217L110.133 1.7404V18.8843L112.94 19.1026V19.4841H107.08V19.1026C107.08 19.1026 108.335 19.0752 108.688 18.966C109.316 18.803 109.534 18.4211 109.615 17.903C109.698 17.549 109.698 16.8948 109.698 16.3768V3.97561C109.698 3.26662 109.698 2.33974 109.615 1.98524C109.534 1.46768 109.316 1.08624 108.688 0.922696C108.334 0.813514 107.08 0.786567 107.08 0.786567V0.404663H111.987L123.217 15.6149L123.19 1.08624L120.709 0.786567V0.404663Z" fill="#F9FAF1"/>
<path d="M32.8475 5.54595H32.2946C31.7292 2.06143 30.8362 0.924077 28.1373 0.866001C27.564 0.866001 26.5577 0.844165 26.5577 0.844165H25.1406V18.9093L27.6221 19.1054V19.4827H20.3157V19.1268C20.3157 19.1268 21.513 19.1054 21.8392 19.0181C22.4998 18.8294 22.6596 18.474 22.7461 17.988C22.8126 17.4997 22.8489 17.0076 22.8548 16.5148V0.844165H21.4405C21.4405 0.844165 20.4319 0.866001 19.8586 0.866001C17.1597 0.924077 16.2672 2.06282 15.7008 5.54595H15.1498L15.7375 0.735448L15.7738 0.401398H32.2207L32.2574 0.735448L32.8475 5.54595Z" fill="#F9FAF1"/>
<path d="M15.1498 14.366C15.1498 17.8505 12.2841 19.866 8.74291 19.866C2.22731 19.866 1.40775 13.9525 1.79198 11.2536L0.341019 12.2985L0 11.8994L5.34015 7.30636L5.78246 7.6037C5.78246 7.6037 4.83188 8.61979 4.70179 8.76521C1.92253 11.9649 3.08357 19.4311 8.41862 19.4311C11.1974 19.4311 13.0475 17.2833 13.0475 14.6922C13.0475 13.0958 12.4161 11.8771 11.4729 10.8903C10.5228 9.88909 9.25304 9.1197 7.97585 8.38702L7.96842 8.38006C7.56235 8.14775 7.16279 7.92289 6.76416 7.69802C6.40874 7.49452 6.02405 7.26222 5.66119 7.03038C5.45073 6.89983 5.2477 6.76881 5.05163 6.63129C5.0442 6.62385 5.03723 6.62385 5.03026 6.61688C3.63506 5.64493 2.63384 4.50665 2.63384 2.88751C2.63384 0.789826 4.43325 0 6.53 0C8.63419 0 11.0283 0.789826 12.1749 1.87932L12.0737 0.986818L12.574 0.929207L13.7495 7.75888H13.2124C11.7257 2.66543 8.26437 0.488763 5.90604 0.488763C4.43325 0.485975 3.34515 1.33481 3.34515 2.8299C3.34515 3.52681 3.71683 4.05599 4.31756 4.51316C4.92712 4.97033 5.76852 5.34945 6.71213 5.73181L7.54609 6.07283C9.64331 6.89286 12.0667 7.85041 13.5901 9.72973C13.5901 9.72973 13.9093 10.055 14.2508 10.6589C14.7944 11.6671 15.1498 12.8644 15.1498 14.366Z" fill="#F9FAF1"/>
<path d="M50.5953 19.485V19.1031C50.5953 19.1031 51.8498 19.0762 52.2033 18.967C52.8301 18.803 53.0484 18.4211 53.1298 17.904C53.212 17.549 53.212 16.623 53.212 15.9136V3.51193C53.212 2.9939 53.212 2.33974 53.1298 1.98524C53.0484 1.46768 52.8301 1.08577 52.2033 0.922696C51.8498 0.813514 50.5953 0.786103 50.5953 0.786103V0.404663H56.4554C63.8426 0.404663 65.2053 3.59324 65.2053 5.2017C65.2053 8.06365 62.098 9.91696 58.009 9.91696H57.3005V9.48116H58.0369C60.9532 9.48116 62.9152 7.73704 62.9152 5.25605C62.9152 2.23056 60.162 0.84232 56.428 0.84232H55.5011V17.7674L55.4741 18.8578L59.0177 19.1305V19.485H50.5953Z" fill="#F9FAF1"/>
<path d="M101.277 45.6106C100.189 48.0921 98.9048 48.7448 97.2216 48.854C96.6483 48.9047 95.7483 48.9335 94.7592 48.9335H89.6485V39.1661H93.3932C95.49 39.1661 96.8545 39.1879 98.2474 41.0742C98.4648 41.3716 98.9364 42.1484 99.4809 43.0767C99.6984 43.4483 99.9307 43.846 100.156 44.2451H100.693L100.061 43.0767L96.455 36.4017H96.0489L96.034 36.4087L97.0139 38.7317H89.6485V30.7219H94.7592C95.746 30.7219 96.6459 30.7507 97.2216 30.8018C98.9048 30.9106 100.189 31.5633 101.277 34.0448C101.452 34.4513 101.64 34.9229 101.829 35.4307H102.438L100.9 30.2866H84.7437V30.6638C84.7437 30.6638 85.9981 30.6927 86.3545 30.8032C86.9785 30.97 87.1959 31.3473 87.2837 31.8695C87.3636 32.2254 87.3636 32.8781 87.3636 33.3934V34.1117H87.3562C87.3636 34.9679 87.3636 35.7949 87.3636 36.0342V46.2648C87.3636 46.5226 87.3636 46.8144 87.3534 47.0867C87.3497 47.3222 87.3264 47.557 87.2837 47.7887C87.24 48.0498 87.1638 48.2746 87.0207 48.4554C86.8776 48.6361 86.6667 48.7718 86.355 48.8554C85.9995 48.9641 84.7442 48.9948 84.7442 48.9948V49.372H100.9L102.439 44.228H101.83C101.64 44.7325 101.452 45.2059 101.277 45.6106Z" fill="#F9FAF1"/>
<path d="M33.0282 44.2247H33.6373L32.0999 49.3688H15.9415V48.9915C15.9415 48.9915 17.1959 48.9627 17.5518 48.8521C17.864 48.7648 18.0745 48.6342 18.2199 48.453C18.3593 48.2714 18.4373 48.0465 18.481 47.7854C18.5206 47.5526 18.5449 47.3175 18.5535 47.0815C18.5605 46.813 18.5605 46.5156 18.5605 46.2615V36.0328C18.5605 35.7935 18.5605 34.9665 18.5535 34.1103H18.5605V33.392C18.5605 32.8767 18.5605 32.224 18.481 31.8681C18.3937 31.3459 18.1762 30.9686 17.5518 30.8018C17.1964 30.6926 15.9415 30.6624 15.9415 30.6624V30.2852H32.0999L33.6373 35.4307H33.0282C32.8424 34.9229 32.651 34.4513 32.4772 34.0448C31.3886 31.5633 30.1063 30.9105 28.4212 30.8032C27.8479 30.7521 26.9479 30.7233 25.9616 30.7233H20.8458V38.7321H28.2107L27.6374 37.3755H28.1745L31.2581 43.078L31.8895 44.2465H31.3524C31.1284 43.8474 30.8961 43.4483 30.6778 43.078C30.1337 42.1488 29.6622 41.373 29.4443 41.0756C28.0509 39.1893 26.6868 39.1661 24.5901 39.1661H20.8458V48.9321H25.9616C26.9479 48.9321 27.8479 48.9032 28.4212 48.8526C30.1045 48.7434 31.3886 48.0907 32.4772 45.6092C32.651 45.2059 32.84 44.7325 33.0282 44.2247Z" fill="#F9FAF1"/>
<path d="M65.2304 45.5516C65.2304 45.5516 66.2116 47.1312 66.6748 47.6781C67.1654 48.2226 67.5473 48.5223 68.0918 48.7406C68.5829 48.932 70.164 48.9859 70.164 48.9859V49.3678H64.0312V48.9859L65.4752 48.8777L61.2208 39.6372C60.5269 39.749 59.825 39.8035 59.1222 39.8003H58.4137V39.3645H59.1496C62.0664 39.3645 64.028 37.6199 64.028 35.1394C64.028 32.1134 61.2747 30.7233 57.5402 30.7233H56.6138V47.6502L56.5869 48.7406L60.1304 49.0134V49.3678H51.7104V48.9859C51.7104 48.9859 52.9648 48.959 53.3179 48.8498C53.9451 48.6863 54.1635 48.3048 54.2471 47.7868C54.3294 47.4328 54.3294 46.5059 54.3294 45.7974V33.3924C54.3294 32.8744 54.3294 32.2203 54.2471 31.8662C54.1658 31.3482 53.9475 30.9668 53.3179 30.8032C52.9639 30.694 51.7104 30.6666 51.7104 30.6666V30.2875H57.57C64.9572 30.2875 66.3203 33.477 66.3203 35.0845C66.3203 37.238 64.5478 38.8195 61.9312 39.4736L65.5026 46.071L65.2304 45.5516Z" fill="#F9FAF1"/>
<path d="M42.6659 30.0036C38.0952 30.0036 34.3872 34.4006 34.3872 39.8277C34.3872 45.2547 38.0975 49.6517 42.6659 49.6517C47.2446 49.6517 50.9522 45.2552 50.9522 39.8277C50.9522 34.4002 47.2446 30.0036 42.6659 30.0036ZM46.7001 47.7654C43.6528 49.3107 39.3789 47.0109 37.1516 42.6283C34.9312 38.2462 35.5919 33.4357 38.6383 31.8899C41.6847 30.3442 45.96 32.6444 48.1878 37.0289C50.4095 41.4166 49.7474 46.2202 46.7001 47.7654Z" fill="#F9FAF1"/>
<path d="M13.1107 38.9872C13.0887 38.9108 13.0621 38.8357 13.0312 38.7624C12.706 38.7624 12.8918 38.6536 12.5884 38.7912C12.6103 38.8567 12.6395 38.9217 12.6609 38.9942C13.1618 40.4094 13.683 42.2158 13.683 43.7471C13.683 46.9106 12.1303 48.3834 10.3528 48.3834C1.08764 48.3834 -2.26494 31.1875 6.31861 31.1875C9.15548 31.1875 11.4701 32.631 12.9722 35.3303H13.3564V29.7992H12.9174L12.646 31.2962C12.646 31.2962 11.0348 29.8234 8.55335 29.8234C3.97608 29.8234 0 33.0956 0 39.7701C0 42.9624 2.17667 49.6661 8.50225 49.6661C11.5277 49.6661 14.1179 47.9174 14.1179 43.7239C14.1193 42.245 13.6696 40.5107 13.1107 38.9872Z" fill="#F9FAF1"/>
<path d="M9.29208 38.544L10.8717 36.2549L10.5465 36.0365L5.39591 42.351H6.13277C6.94211 41.399 7.56793 40.6626 7.76957 40.4247C8.75081 39.2804 9.89513 39.2804 11.6128 39.062C11.9942 39.0077 12.8119 38.9798 13.5209 38.9798L15.1833 38.9528V38.544H9.29208Z" fill="#F9FAF1"/>
<path d="M81.9626 38.9872C81.9404 38.9107 81.9138 38.8357 81.8827 38.7624C81.5574 38.7624 81.7433 38.6536 81.4404 38.7912C81.4622 38.8567 81.491 38.9217 81.5128 38.9942C82.0137 40.4094 82.535 42.2158 82.535 43.7471C82.535 46.9106 80.9823 48.3834 79.2047 48.3834C69.9391 48.3834 66.587 31.1875 75.1705 31.1875C78.0046 31.1875 80.3221 32.631 81.8237 35.3303H82.2084V29.7992H81.7702L81.4989 31.2962C81.4989 31.2962 79.8881 29.8234 77.4067 29.8234C72.828 29.8234 68.8542 33.0956 68.8542 39.7701C68.8542 42.9624 71.0309 49.6661 77.3565 49.6661C80.3825 49.6661 82.9726 47.9174 82.9726 43.7239C82.9712 42.245 82.5215 40.5107 81.9626 38.9872Z" fill="#F9FAF1"/>
<path d="M78.1463 38.544L79.726 36.2549L79.4008 36.0365L74.2474 42.351H74.9824C75.7913 41.399 76.4175 40.6626 76.6192 40.4247C77.6004 39.2804 78.7447 39.2804 80.4624 39.062C80.8434 39.0077 81.6611 38.9798 82.3705 38.9798L84.0329 38.9528V38.544H78.1463Z" fill="#F9FAF1"/>
</g>
<defs>
<clipPath id="clip0_519_4527">
<rect width="153" height="49.6675" fill="white"/>
</clipPath>
</defs>
</svg>
