<svg  viewBox="0 0 153 56" fill="none" xmlns="http://www.w3.org/2000/svg">
<path d="M49.6855 16.6192L50.3058 16.523C49.7855 18.3904 49.2644 20.2601 48.7424 22.1321C43.273 23.0227 37.8395 24.1789 32.442 25.6007C32.442 25.4695 32.442 25.3384 32.442 25.2073C32.442 25.2073 33.6967 24.8485 34.0556 24.6465C34.3677 24.4765 34.581 24.2877 34.7256 24.0623C34.8632 23.8306 34.9523 23.5712 34.9871 23.3012C35.027 23.0527 35.0515 22.8018 35.0603 22.55C35.0669 22.2686 35.0669 21.9584 35.0674 21.6937V11.0306C35.0674 10.7811 35.0674 9.91902 35.0603 9.0282H35.0674V8.27809C35.0674 7.74141 35.0674 7.06035 34.9871 6.70883C34.9002 6.18574 34.6814 5.84626 34.0556 5.83057C33.6942 5.80546 32.4466 6.10257 32.442 6.10362C32.442 5.97285 32.442 5.84173 32.442 5.71026C37.8332 4.2892 43.2666 3.13318 48.7424 2.24219C49.2634 3.94431 49.7845 5.64906 50.3058 7.35641L49.6855 7.45371C49.4937 6.95416 49.3005 6.49384 49.1259 6.09839C48.0217 3.69219 46.7144 3.22768 45.0105 3.43064C44.4293 3.48557 43.5199 3.62785 42.5217 3.82819C40.7993 4.17343 39.0802 4.54552 37.3644 4.94446V13.2929C39.8343 12.7186 42.3128 12.1993 44.7997 11.7352C44.6056 11.3 44.4121 10.8649 44.219 10.4301L44.7621 10.3255C45.8036 12.1123 46.8457 13.9083 47.8882 15.7133C48.1017 16.0833 48.3153 16.4536 48.5291 16.8243C48.3475 16.8541 48.1653 16.8839 47.9846 16.9148C47.7532 16.5366 47.5244 16.161 47.2995 15.8132C46.745 14.9401 46.2682 14.2157 46.0489 13.9452C44.6401 12.2342 43.2554 12.4691 41.138 12.91C39.877 13.1761 38.6191 13.4551 37.3644 13.747V23.9257C39.0798 23.5282 40.7994 23.155 42.5232 22.8063C43.5204 22.606 44.4303 22.403 45.012 22.243C46.7184 21.8135 48.0187 20.9148 49.1274 18.1503C49.3015 17.701 49.4947 17.1789 49.6855 16.6192Z" fill="white"/>
<path d="M151.895 33.2529C150.857 35.3405 149.632 35.4404 148.017 34.8222C147.465 34.626 146.603 34.2687 145.65 33.8555C144.404 33.3136 143.153 32.7868 141.897 32.2752C141.498 32.1127 141.098 31.9516 140.697 31.7919C140.697 30.1334 140.697 28.4747 140.697 26.8158C140.697 25.0812 140.697 23.347 140.697 21.6132C141.912 22.0975 143.122 22.596 144.329 23.1087C146.355 23.9728 147.667 24.5859 149.001 27.1636C149.208 27.5695 149.661 28.587 150.181 29.7989C150.388 30.2823 150.612 30.8028 150.826 31.3201L151.338 31.5638C151.137 31.0624 150.937 30.5611 150.736 30.06C149.588 27.1983 148.437 24.3498 147.282 21.5143C147.152 21.4557 147.022 21.3982 146.891 21.3401H146.877C147.191 22.2858 147.505 23.2328 147.819 24.181C145.461 23.1181 143.087 22.1103 140.698 21.1575C140.698 20.0333 140.698 18.909 140.698 17.7847C140.698 17.3034 140.698 16.822 140.698 16.3404C140.698 15.1631 140.698 13.986 140.698 12.8091C142.356 13.4717 144.007 14.1595 145.651 14.8727C146.602 15.2864 147.467 15.7033 148.018 16.0051C149.637 16.8499 150.857 18.1116 151.896 21.1968C152.06 21.7005 152.238 22.2785 152.421 22.8952L153 23.1782C152.512 21.1518 152.024 19.1287 151.536 17.1089C146.403 14.65 141.194 12.4562 135.908 10.5274C135.908 10.6581 135.908 10.7889 135.908 10.9202C135.908 10.9202 137.142 11.403 137.485 11.6489C138.093 12.0527 138.311 12.5282 138.393 13.1051C138.471 13.5053 138.47 14.1858 138.471 14.7231V15.4716H138.464C138.47 16.3666 138.472 17.2286 138.471 17.4782V28.1387C138.469 28.407 138.468 28.7114 138.462 28.9913C138.459 29.2282 138.436 29.4643 138.393 29.6969C138.351 29.9522 138.278 30.1588 138.136 30.2933C137.994 30.4277 137.789 30.4915 137.484 30.4638C137.138 30.445 135.905 30.0218 135.907 30.0228C135.907 30.1541 135.907 30.2844 135.907 30.4162C137.914 31.1485 139.911 31.9197 141.897 32.7298C145.141 34.0508 148.354 35.4734 151.536 36.9977C152.025 35.4448 152.513 33.894 153 32.3453L152.419 32.065C152.241 32.5049 152.061 32.9097 151.895 33.2529Z" fill="white"/>
<path d="M76.6514 19.261V9.85747C74.3047 9.85538 71.9582 9.90123 69.6121 9.99504V19.3986C70.5245 19.438 71.4369 19.4845 72.3494 19.5383V19.9363C69.7617 19.9984 67.1749 20.1191 64.5889 20.2983V19.9002C64.5889 19.9002 65.8707 19.7862 66.2345 19.6523C66.8754 19.4431 67.0992 19.034 67.1836 18.4905C67.2659 18.116 67.2659 17.4344 67.2674 16.8946C67.2674 12.5861 67.2674 8.2774 67.2674 3.96855C67.2644 3.22995 67.2674 2.26381 67.1836 1.89922C67.1008 1.3641 66.8764 0.977535 66.2345 0.845194C65.8732 0.751561 64.5889 0.807532 64.5889 0.809101V0.411554C67.1735 0.232658 69.7604 0.112871 72.3494 0.0521932V0.44974C71.4366 0.547732 70.5242 0.652349 69.6121 0.763592V9.541C71.9569 9.44685 74.3033 9.40099 76.6514 9.40343V0.624451C75.738 0.54808 74.8253 0.478335 73.9132 0.415216V0.0192387C76.5119 -0.0194698 79.1101 0.000233177 81.7078 0.0783476V0.475894C81.7078 0.475894 80.4255 0.470663 80.0592 0.575281C79.3886 0.732207 79.1944 1.12766 79.1096 1.66592C79.0283 2.03208 79.0268 3.00031 78.9987 3.73839V16.6655C79.0273 17.2058 79.0278 17.8874 79.1096 18.2583C79.1909 18.7991 79.3902 19.1998 80.0592 19.3834C80.4225 19.5027 81.7083 19.5655 81.7078 19.567V19.9651C79.1108 19.8866 76.5126 19.8669 73.9132 19.906V19.5079C74.8253 19.4186 75.738 19.3363 76.6514 19.261Z" fill="white"/>
<path d="M101.336 21.0864C100.023 17.2972 98.7089 13.523 97.393 9.76371C94.5962 11.0798 91.7934 12.4646 88.9846 13.9181C88.0638 15.7736 87.1437 17.6365 86.2243 19.5067C88.2144 19.7045 90.2034 19.9367 92.1915 20.2035C92.1915 20.3356 92.1915 20.4683 92.1915 20.6015C88.9608 20.3058 85.7251 20.102 82.4843 19.9901V19.592C82.4843 19.592 83.9899 19.592 84.5219 19.4471C85.1357 19.2776 85.6115 18.9617 86.0571 18.3899C86.5043 17.7884 87.2044 16.5246 87.2847 16.3881C87.7414 15.4406 88.197 14.4956 88.6513 13.553C90.0736 10.6707 91.4956 7.80597 92.9173 4.95864C93.1682 4.4706 93.6395 3.4375 93.9471 2.64555C94.1157 2.18 94.0309 1.51568 93.0844 1.3666C92.6959 1.31429 88.5113 0.801143 88.5138 0.815789V0.418243C91.2748 0.611437 94.0317 0.870714 96.7847 1.19607C98.7303 6.74079 100.674 12.3171 102.614 17.9249C103.116 19.3372 103.782 21.168 105.325 21.7434C105.96 21.993 106.955 22.198 106.956 22.1985C106.956 22.3314 106.956 22.4637 106.956 22.5966C104.313 22.1227 101.663 21.7112 99.006 21.3621V20.964C99.7846 20.9993 100.561 21.0401 101.336 21.0864ZM97.2269 9.317C96.4014 6.97357 95.577 4.63502 94.7536 2.30136C92.9449 5.90612 91.1339 9.53966 89.3208 13.202C91.96 11.8472 94.5954 10.5524 97.2269 9.31752V9.317Z" fill="white"/>
<path d="M130.33 12.3222C130.33 11.5836 130.33 10.6175 130.248 10.2215C130.168 9.65553 129.951 9.18632 129.331 8.81702C128.98 8.58895 127.737 8.17048 127.738 8.17205V7.77451C130.226 8.54623 132.702 9.37533 135.165 10.2618C135.165 10.3946 135.165 10.5272 135.165 10.6593C135.165 10.6593 133.934 10.2477 133.584 10.2409C132.966 10.1959 132.758 10.5212 132.671 11.0328C132.593 11.3744 132.589 12.3405 132.591 13.0791V25.5218C132.591 26.2609 132.594 27.2265 132.671 27.6241C132.755 28.1916 132.966 28.6619 133.584 29.0479C133.936 29.2817 135.163 29.7489 135.165 29.7504C135.165 29.8833 135.165 30.0156 135.165 30.1485C132.703 29.2617 130.227 28.4326 127.738 27.6612V27.2632C127.743 27.2632 128.984 27.6236 129.331 27.6236C129.953 27.6529 130.166 27.3259 130.248 26.8128C130.327 26.4696 130.329 25.788 130.33 25.2482C130.329 20.9397 130.329 16.6311 130.33 12.3222Z" fill="white"/>
<path d="M121.444 5.95203C123.298 6.45106 125.145 6.98147 126.987 7.54326V7.94133C126.987 7.94133 125.741 7.59191 125.388 7.60342C124.738 7.58302 124.549 7.92616 124.438 8.43408C124.384 8.75996 124.384 9.38453 124.356 9.88826C124.366 15.478 124.375 21.0677 124.384 26.6574L123.949 26.5329C119.599 19.127 115.22 11.895 110.811 4.83681V22.7065C111.756 22.974 112.701 23.2495 113.644 23.533V23.9305C111.676 23.4967 109.702 23.098 107.722 22.7342C107.722 22.6017 107.722 22.4694 107.722 22.3372C107.722 22.3372 108.989 22.5465 109.35 22.502C109.983 22.4549 110.203 22.1018 110.287 21.5782C110.373 21.2257 110.37 20.5441 110.37 20.0042V7.07824C110.37 6.33912 110.37 5.37297 110.287 4.98589C110.204 4.42985 109.986 3.98784 109.35 3.69386C108.989 3.50921 107.726 3.24349 107.722 3.24505C107.722 3.11219 107.722 2.9795 107.722 2.84698C109.378 3.15142 111.031 3.48044 112.682 3.83405C116.459 9.92627 120.215 16.1479 123.949 22.4988C123.94 17.449 123.931 12.3991 123.922 7.3492C123.098 7.00954 122.272 6.67651 121.444 6.3501V5.95203Z" fill="white"/>
<path d="M32.1111 11.1613L31.559 11.3093C30.9939 7.83605 30.0976 6.87461 27.4115 7.60327C26.8404 7.77119 25.8407 8.05365 25.8392 8.05418C25.3708 8.1975 24.9023 8.34309 24.4339 8.49095V27.3221C25.2536 27.1313 26.0749 26.9469 26.8976 26.7687V27.162C24.4762 27.8849 22.0667 28.6638 19.6691 29.4987C19.6691 29.3752 19.6691 29.2518 19.6691 29.1283C19.6691 29.1283 20.8495 28.6978 21.1707 28.5006C21.8232 28.0821 21.9813 27.6637 22.0666 27.1275C22.1307 26.6069 22.1665 26.083 22.174 25.5582V9.22171C21.7076 9.37584 21.2422 9.5319 20.7778 9.68987C20.7808 9.68987 19.7851 10.0518 19.2189 10.2506C16.565 11.2487 15.6983 12.7803 15.1417 16.6155L14.6047 16.8206C14.7958 15.077 14.9873 13.3333 15.1794 11.5897C15.1914 11.4694 15.2024 11.3491 15.2145 11.2283C20.5762 9.20078 26.0008 7.44757 31.4883 5.96863C31.5013 6.08109 31.5124 6.19408 31.5254 6.30654C31.7211 7.92567 31.9164 9.54393 32.1111 11.1613Z" fill="white"/>
<path d="M14.6046 26.0139C14.6046 29.6457 11.7991 32.8015 8.38131 34.2651C2.09181 37.0019 1.34904 31.3232 1.70637 28.3045C1.24398 28.8872 0.783259 29.4724 0.324211 30.06L0 29.8026C1.69098 27.3776 3.39117 24.9815 5.10055 22.6144L5.52564 22.7331C5.52564 22.7331 4.61223 24.2035 4.48776 24.4122C1.83285 28.996 2.92191 36.1927 8.06312 33.9481C10.7476 32.7973 12.5504 29.8581 12.5509 27.1553C12.5509 25.4919 11.9386 24.464 11.0207 23.8075C10.0947 23.1401 8.87013 22.8513 7.63552 22.6212L7.62849 22.6165C7.23703 22.5443 6.85209 22.4778 6.46766 22.413C6.12688 22.3518 5.75349 22.2749 5.4072 22.1896C5.20645 22.1441 5.01072 22.096 4.82151 22.0374C4.81599 22.0332 4.80695 22.0374 4.80143 22.0316C3.46645 21.6252 2.50536 20.8913 2.50887 19.207C2.50937 17.0194 4.22829 15.3785 6.24432 14.4892C8.26738 13.5885 10.588 13.4509 11.7037 14.1393C11.6706 13.8422 11.639 13.5456 11.6033 13.2501C11.7659 13.1643 11.927 13.079 12.0902 12.9937C12.4716 15.213 12.853 17.4339 13.2344 19.6563L12.7115 19.8624C11.2641 15.117 7.90452 14.2371 5.64408 15.2613C4.2298 15.8948 3.1849 17.2679 3.18841 18.8251C3.18841 19.5512 3.54424 19.9377 4.11939 20.1496C4.70658 20.3588 5.51058 20.385 6.41898 20.3844L7.22197 20.3876C9.24252 20.3578 11.5988 20.3939 13.0804 21.7717C13.0804 21.7717 13.392 21.9898 13.7243 22.4878C14.2532 23.3331 14.6046 24.4483 14.6046 26.0139Z" fill="white"/>
<path d="M50.0241 21.9297V21.5316C50.0241 21.5316 51.2973 21.3083 51.6587 21.144C52.2981 20.8825 52.5199 20.4525 52.6022 19.9017C52.6855 19.5198 52.6855 18.5547 52.6855 17.8156V4.88959C52.6855 4.34924 52.6855 3.66818 52.6022 3.31039C52.5164 2.78207 52.2941 2.41434 51.6587 2.33692C51.2993 2.27415 50.0241 2.44154 50.0241 2.44154V2.04399C52.0095 1.73572 53.9981 1.46249 55.9899 1.22432C63.531 0.377959 64.9353 3.74926 64.9308 5.38757C64.9308 8.37493 61.7494 10.494 57.5758 10.9553L56.8521 11.0369V10.5829C57.103 10.5541 57.354 10.5259 57.6049 10.4987C60.5805 10.1717 62.588 8.20701 62.5895 5.61878C62.592 2.46926 59.772 1.22484 55.9648 1.68097C55.6496 1.71898 55.3346 1.75769 55.0197 1.7971C55.0197 7.67765 55.0197 13.5584 55.0197 19.4393C55.0102 19.819 55.0017 20.1993 54.9921 20.5791C56.1966 20.5226 57.4011 20.479 58.6056 20.4483V20.8145C55.7396 21.1151 52.8791 21.4868 50.0241 21.9297Z" fill="white"/>
<path d="M127.272 52.1155C126.193 54.371 124.914 54.6682 123.235 54.3125C122.663 54.2042 121.768 53.986 120.776 53.7245C119.482 53.3821 118.186 53.0544 116.887 52.7416C116.474 52.6422 116.06 52.5444 115.646 52.4482C115.646 50.7893 115.646 49.1306 115.646 47.472C115.646 45.7382 115.646 44.004 115.646 42.2694C116.902 42.5613 118.155 42.8677 119.406 43.1885C121.505 43.7294 122.869 44.13 124.258 46.496C124.473 46.8684 124.942 47.8131 125.486 48.9414C125.703 49.3907 125.932 49.8756 126.157 50.3584L126.691 50.5195C126.483 50.0502 126.273 49.5813 126.063 49.113C124.868 46.4365 123.67 43.7729 122.47 41.1223L122.064 41.0109L122.049 41.0145C122.375 41.9101 122.701 42.8068 123.028 43.7048C120.577 43.0202 118.117 42.3904 115.646 41.8154C115.646 40.6911 115.646 39.567 115.646 38.443C115.646 37.9611 115.646 37.4795 115.646 36.9983C115.646 35.8213 115.646 34.6442 115.646 33.4669C117.36 33.8655 119.071 34.2909 120.776 34.7432C121.763 35.0048 122.66 35.2836 123.235 35.497C124.911 36.0829 126.196 37.1463 127.272 40.0641C127.445 40.5411 127.634 41.0899 127.821 41.6778C128.021 41.7399 128.222 41.8028 128.423 41.8666C127.914 39.919 127.405 37.9742 126.896 36.0321C121.546 34.4029 116.147 33.0383 110.699 31.9384V32.3266C110.699 32.3266 111.971 32.6158 112.325 32.8073C112.954 33.1149 113.178 33.5569 113.263 34.1202C113.342 34.5084 113.345 35.1889 113.343 35.7261V36.4747H113.336C113.347 37.3686 113.342 38.2307 113.343 38.4802V49.1438C113.343 49.4122 113.343 49.7192 113.333 49.998C113.329 50.2384 113.305 50.4779 113.263 50.7141C113.218 50.9757 113.142 51.1949 112.998 51.3513C112.853 51.5077 112.64 51.6044 112.325 51.6243C111.969 51.6599 110.698 51.4297 110.699 51.4313V51.8246C112.766 52.2431 114.828 52.6992 116.886 53.193C120.242 53.9982 123.58 54.9065 126.898 55.9178C127.407 54.2858 127.916 52.6562 128.425 51.029C128.224 50.9659 128.023 50.903 127.823 50.8402C127.635 51.3146 127.446 51.7457 127.272 52.1155Z" fill="white"/>
<path d="M57.8804 44.048L58.5027 43.9816C57.9781 45.8239 57.4548 47.6684 56.9328 49.5153C51.437 50.143 45.9687 51.0352 40.528 52.1919C40.528 52.0612 40.528 51.93 40.528 51.7986C40.528 51.7986 41.7958 51.5015 42.1546 51.3168C42.4673 51.1625 42.6846 50.9836 42.8296 50.7655C42.97 50.5398 43.0602 50.2842 43.0936 50.0175C43.1334 49.77 43.1578 49.5202 43.1669 49.2694C43.1759 48.988 43.1734 48.6784 43.1744 48.4137V37.7505C43.1744 37.501 43.1774 36.639 43.1669 35.7482H43.1744V34.998C43.1744 34.4608 43.1744 33.7803 43.0936 33.4256C43.0088 32.8989 42.7845 32.5484 42.1546 32.5019C41.7968 32.4595 40.5265 32.6949 40.528 32.6965C40.528 32.5652 40.528 32.4349 40.528 32.3031C45.964 31.146 51.4323 30.2538 56.9328 29.6265C57.4561 31.3537 57.9794 33.0836 58.5027 34.816L57.8804 34.8824C57.6866 34.374 57.4959 33.9037 57.3178 33.4999C56.2136 31.0383 54.8952 30.5131 53.1833 30.6329C52.6001 30.659 51.6847 30.7574 50.68 30.9096C48.9465 31.1722 47.2157 31.4611 45.4876 31.7764V40.1248C47.9752 39.6715 50.4688 39.2725 52.9685 38.928L52.3853 37.5952C52.5677 37.569 52.7499 37.5436 52.9319 37.5188C53.9781 39.3559 55.0255 41.2026 56.0741 43.0588C56.2882 43.4393 56.5029 43.8199 56.718 44.2007C56.5353 44.2217 56.3528 44.2431 56.1705 44.2651C55.9396 43.8764 55.7057 43.4888 55.4824 43.1305C54.9273 42.2308 54.4475 41.4828 54.2277 41.2024C52.8099 39.4239 51.4172 39.5908 49.2888 39.9287C48.021 40.1309 46.7548 40.3477 45.4901 40.5789V50.7576C47.2175 50.4438 48.9483 50.1549 50.6825 49.8909C51.6862 49.7392 52.6016 49.5802 53.1858 49.4478C54.8997 49.101 56.2136 48.2656 57.3203 45.5545C57.4949 45.1114 57.6886 44.5983 57.8804 44.048Z" fill="white"/>
<path d="M90.8471 45.0209C90.8471 45.0209 91.8508 46.7539 92.3241 47.3664C92.823 47.9805 93.2144 48.3305 93.772 48.614C94.2739 48.8614 95.8864 49.0931 95.8874 49.0952V49.4933C93.801 49.2575 91.7122 49.06 89.621 48.9006V48.5025C90.1132 48.5025 90.6055 48.5045 91.098 48.5083C89.649 45.1752 88.1989 41.8602 86.7478 38.5634C86.0338 38.6376 85.3154 38.6561 84.5988 38.6188C84.3569 38.6073 84.1145 38.5968 83.873 38.5864V38.1329C84.1243 38.1433 84.3753 38.1545 84.6259 38.1663C87.615 38.3086 89.6205 36.6593 89.62 34.0711C89.62 30.921 86.8095 29.2346 82.9782 29.0908C82.6614 29.0786 82.345 29.0674 82.0292 29.0573V46.6995C82.0195 47.0778 82.0101 47.4564 82.0011 47.8351C83.2109 47.9683 84.4209 48.1144 85.6311 48.2734V48.6427C82.756 48.49 79.8786 48.4096 76.9989 48.4016V48.0035C76.9989 48.0035 78.2832 47.9821 78.647 47.8743C79.2874 47.7116 79.5133 47.3198 79.5966 46.7811C79.6824 46.4149 79.6829 45.4472 79.6809 44.7086C79.6809 40.3997 79.6809 36.0909 79.6809 31.7821C79.6809 31.2422 79.6809 30.5601 79.5966 30.1898C79.5113 29.6484 79.2924 29.2482 78.647 29.0672C78.2832 28.9474 76.9964 28.9103 76.9989 28.9103V28.5128C79.001 28.5187 81.0028 28.5593 83.0043 28.6346C90.5686 28.9773 91.9583 32.5683 91.9588 34.206C91.9588 36.4527 90.148 37.9257 87.47 38.4352C88.6879 40.8048 89.9056 43.1871 91.1231 45.5821C91.0318 45.3959 90.9398 45.2088 90.8471 45.0209Z" fill="white"/>
<path d="M67.7357 28.4411C63.0527 28.6754 59.2706 33.6672 59.2681 39.3213C59.2655 44.9753 63.0542 49.1553 67.7357 48.9204C72.4172 48.6856 76.2274 44.119 76.2259 38.4587C76.2244 32.7984 72.4247 28.1989 67.7357 28.4411ZM71.8686 46.7925C68.7465 48.4727 64.3721 46.3427 62.0931 41.9801C59.8141 37.6176 60.5017 32.5248 63.6143 30.6673C66.7269 28.8098 71.1103 31.0277 73.3928 35.5676C75.6683 40.1153 74.9888 45.1113 71.8686 46.7925Z" fill="white"/>
<path d="M37.6761 43.053C37.6546 42.979 37.6277 42.9067 37.5958 42.8369C37.263 42.9133 37.4572 42.7559 37.1501 42.9709C37.1712 43.0336 37.2003 43.0948 37.2234 43.1654C37.7252 44.5223 38.2537 46.2862 38.2527 47.8816C38.2502 51.1771 36.6924 53.0659 34.9052 53.509C25.6286 55.9398 22.3247 39.1706 30.8651 36.6399C33.6987 35.8642 36.0249 36.8105 37.537 39.2737L37.924 39.1842C37.924 37.2628 37.924 35.3411 37.924 33.4193L37.4818 33.5239C37.3908 34.0651 37.2998 34.6056 37.2088 35.1455C37.2088 35.1455 35.5858 33.979 33.101 34.6224C28.5113 35.8056 24.5766 40.481 24.5746 47.438C24.5811 50.7905 26.7176 56.9985 33.0498 55.3204C36.0791 54.5306 38.6893 52.1338 38.6919 47.7618C38.6904 46.2171 38.2367 44.5114 37.6761 43.053Z" fill="white"/>
<path d="M33.8423 43.5207C34.3702 42.5906 34.8987 41.6632 35.4277 40.7384L35.1 40.5914C33.3765 43.211 31.6574 45.8573 29.9427 48.5303C30.1876 48.4605 30.4322 48.3927 30.6764 48.3268C31.485 47.1122 32.1078 46.1785 32.3131 45.8772C33.2932 44.4261 34.443 44.128 36.1675 43.4851C36.5499 43.336 37.372 43.1127 38.0866 42.95C38.6454 42.8133 39.2038 42.6795 39.7619 42.5488C39.7619 42.407 39.7619 42.2647 39.7619 42.123C37.7832 42.5543 35.81 43.0202 33.8423 43.5207Z" fill="white"/>
<path d="M107.887 40.4595C107.866 40.3744 107.839 40.2911 107.806 40.2105C107.476 40.1493 107.665 40.0708 107.358 40.1582C107.379 40.2298 107.408 40.3036 107.431 40.3831C107.939 41.9524 108.469 43.9322 108.467 45.5282C108.467 48.8236 106.897 50.0613 105.091 49.7594C95.6727 48.3047 92.2383 30.129 100.991 31.1982C103.877 31.612 106.227 33.5291 107.747 36.6221L108.137 36.6943C108.137 34.7724 108.137 32.8506 108.137 30.9288L107.692 30.8467C107.6 31.3499 107.509 31.8533 107.417 32.3568C107.417 32.3568 105.787 30.515 103.264 30.118C98.6182 29.3815 94.5455 32.3893 94.5495 39.3448C94.5495 42.6972 96.7788 49.818 103.212 50.7931C106.287 51.2722 108.908 49.9619 108.908 45.5899C108.907 44.0473 108.455 42.1522 107.887 40.4595Z" fill="white"/>
<path d="M104.015 39.3276C104.551 38.6186 105.086 37.9123 105.621 37.2086L105.29 36.9245C103.547 38.824 101.801 40.75 100.053 42.7026C100.302 42.7374 100.552 42.7723 100.801 42.8072C101.624 41.932 102.263 41.2614 102.466 41.0444C103.464 40.0045 104.628 40.1865 106.368 40.2639C106.755 40.2749 107.585 40.3942 108.302 40.5291C108.863 40.625 109.424 40.7235 109.984 40.8247V40.3989C107.998 40.0066 106.009 39.6495 104.015 39.3276Z" fill="white"/>
</svg>
