<svg  viewBox="0 0 131 128" fill="none" xmlns="http://www.w3.org/2000/svg">
<g clip-path="url(#clip0_508_594)">
<path d="M16.3179 59.6362V68.3637C16.3179 72.782 12.665 76.3637 8.15894 76.3637C3.65291 76.3637 0 72.782 0 68.3637V59.6362C0 55.218 3.65291 51.6362 8.15894 51.6362C12.665 51.6362 16.3179 55.218 16.3179 59.6362Z" fill="#0066D9"/>
<path d="M114.228 59.8637C114.226 59.7879 114.225 59.7121 114.225 59.6362C114.225 55.218 117.878 51.6362 122.384 51.6362C126.89 51.6362 130.543 55.218 130.543 59.6362C130.543 59.7122 130.542 59.7882 130.54 59.8637H130.543V68.591H130.54C130.417 72.904 126.813 76.3635 122.384 76.3635C117.956 76.3635 114.351 72.904 114.228 68.591H114.225V59.8635H114.228V59.8637Z" fill="#4285F4"/>
<path d="M44.5034 85.8184V94.5456C44.5034 98.9639 40.8508 102.546 36.3445 102.546C31.8382 102.546 28.1855 98.9639 28.1855 94.5456V85.8181C28.1855 81.4001 31.8385 77.8181 36.3445 77.8181C40.8505 77.8181 44.5034 81.4001 44.5034 85.8181V85.8184ZM44.5034 33.4546V62.0001H44.5014C44.403 66.3343 40.7886 69.8183 36.3445 69.8183C31.9004 69.8183 28.2863 66.3343 28.1878 62.0001H28.1855V33.4546C28.1855 29.0363 31.8385 25.4546 36.3445 25.4546C40.8505 25.4546 44.5034 29.0363 44.5034 33.4546Z" fill="#EA4335"/>
<path d="M86.04 42.1818C86.04 46.6001 89.6927 50.1818 94.199 50.1818C98.7053 50.1818 102.358 46.6001 102.358 42.1818V33.4546C102.358 29.0363 98.705 25.4546 94.199 25.4546C89.6929 25.4546 86.04 29.0363 86.04 33.4546V42.1818Z" fill="#34A853"/>
<path d="M57.1128 16.7275C57.1128 21.1455 60.7657 24.7275 65.2717 24.7275C69.7778 24.7275 73.4307 21.1455 73.4307 16.7275V8C73.4307 3.58175 69.7778 0 65.2717 0C60.7657 0 57.1128 3.58175 57.1128 8V16.7275ZM57.1128 111.272C57.1128 106.854 60.7657 103.272 65.2717 103.272C69.7778 103.272 73.4307 106.854 73.4307 111.272V120C73.4307 124.418 69.7778 128 65.2717 128C60.7657 128 57.1128 124.418 57.1128 120V111.272Z" fill="#FAB908"/>
<path d="M86.04 66.1816C86.04 61.7634 89.6927 58.1816 94.199 58.1816C98.7053 58.1816 102.358 61.7634 102.358 66.1816V94.5454C102.358 98.9636 98.705 102.545 94.199 102.545C89.6929 102.545 86.04 98.9636 86.04 94.5454V66.1816Z" fill="#34A853"/>
<path d="M73.4307 40.7275V87.2725C73.4307 91.691 69.7778 95.2725 65.2717 95.2725C60.7657 95.2725 57.1128 91.691 57.1128 87.2725V40.7275C57.1128 36.309 60.7657 32.7275 65.2717 32.7275C69.7778 32.7275 73.4307 36.309 73.4307 40.7275Z" fill="#FAB908"/>
</g>
<defs>
<clipPath id="clip0_508_594">
<rect width="130.543" height="128" fill="white"/>
</clipPath>
</defs>
</svg>
