<svg  viewBox="0 0 56 68" fill="none" xmlns="http://www.w3.org/2000/svg">
<path d="M49.1186 0.295017C40.3186 2.49502 33.4187 7.39501 28.5187 15.095C27.5187 16.695 27.0186 16.895 25.6186 15.395C20.6186 10.495 14.5186 8.09501 8.41864 7.59501C1.41864 7.49501 -1.08136 10.695 0.418636 17.095C1.91864 23.295 4.81866 28.895 8.81866 33.795C12.7187 38.595 16.8187 43.195 21.0187 47.795C22.4187 49.295 22.6187 50.395 21.3187 52.095C18.3187 56.195 16.0187 60.795 15.0187 65.895C14.8187 66.695 14.4187 67.895 15.7187 67.995C16.8187 68.095 16.7186 66.995 16.9186 66.295C17.9186 61.495 20.2187 57.395 22.8187 53.295C23.7187 51.895 24.2187 51.695 25.3187 53.095C27.4187 55.995 29.4186 58.995 31.1186 62.095C31.5186 62.895 31.6186 64.795 33.1186 63.895C34.4186 63.195 33.2187 61.895 32.8187 60.995C31.3187 57.895 29.7187 54.895 27.3187 52.495C25.2187 50.295 25.7187 48.795 27.5187 46.795C32.8187 40.695 38.0187 34.495 43.1186 28.295C47.6186 22.895 51.5186 17.095 54.4186 10.695C55.1186 9.19504 55.7187 7.59499 55.8187 5.89499C56.2187 1.19499 53.8186 -0.804983 49.1186 0.295017ZM53.4186 8.09501C51.9186 12.295 49.6186 16.195 47.1186 19.895C41.3186 28.595 33.9187 36.095 27.3187 44.195C24.0187 48.295 24.0186 48.295 20.4186 44.395C16.2186 39.695 11.9187 35.195 8.31866 29.995C5.31866 25.695 3.11865 20.995 2.11865 15.895C1.21865 11.695 3.11868 9.49504 6.71868 9.69504C13.7187 10.195 19.3187 12.495 24.0187 16.795C25.5187 18.195 25.2187 20.395 26.0187 21.495C27.6187 23.895 26.4187 24.495 25.0187 25.695C24.7187 25.995 24.6187 26.395 24.8187 26.795C25.1187 27.295 25.6186 27.595 26.1186 27.295C26.8186 26.895 27.6186 26.495 27.9186 25.895C28.8186 24.495 29.3187 22.495 31.7187 23.695C32.2187 23.895 32.6186 23.395 32.6186 22.795C32.6186 22.195 32.1187 21.995 31.7187 21.695C27.9187 19.695 27.8186 19.695 30.1186 16.095C34.4186 9.39501 40.5187 4.89504 48.1186 2.69504C49.7186 2.19504 51.5186 1.39502 52.9186 2.79502C54.7186 4.19502 54.1186 6.295 53.4186 8.09501Z" fill="currentColor"/>
</svg>
