<svg  viewBox="0 0 419 452" fill="none" xmlns="http://www.w3.org/2000/svg">
<g filter="url(#filter0_d_401_1096)">
<path d="M322.466 379.796L339.763 428.791L303.329 392.024L322.466 379.796Z" fill="#C7A490"/>
<path d="M327.484 416.855L333.881 412.699L339.368 428.791L327.484 416.855Z" fill="#3A3A3A"/>
<path d="M89.5723 18.0047L98.9689 11.8036L322.86 379.856L313.464 386.057L89.5723 18.0047Z" fill="#3E2B2F"/>
<path opacity="0.7" d="M89.5723 18.0047L98.9689 11.8036L322.86 379.856L313.464 386.057L89.5723 18.0047Z" fill="#A50707"/>
<path d="M80.0201 24.362L89.3748 18.1908L313.308 386.273L303.953 392.444L80.0201 24.362Z" fill="black"/>
<path d="M85.0892 31.2984L77.4834 19.2076C74.4836 14.6352 75.838 8.41107 80.2164 5.50109L82.2874 4.01543C86.6658 1.10544 92.8104 2.7005 95.8102 7.27289L103.416 19.3637C106.416 23.9361 105.062 30.1602 100.683 33.0702L98.6121 34.5558C93.9973 37.4045 88.037 36.1101 85.0892 31.2984Z" fill="#D7509E"/>
<path d="M77.9721 20.7877L96.8679 8.40839L112.699 34.2464L93.8032 46.6257L77.9721 20.7877Z" fill="#B7B7B6"/>
</g>
<g clip-path="url(#clip0_401_1096)">
<path d="M95.7787 30.502C96.8556 32.3673 95.9446 34.3337 94.0481 35.4286C90.5586 37.4433 88.291 34.5297 87.6623 32.9653L87.2084 33.9738L86.9025 33.8655L88.3423 29.7546L88.6713 29.7771C88.6713 29.7771 88.4765 30.615 88.4516 30.7328C87.9527 33.3058 90.883 36.9454 93.7392 35.2964C95.2275 34.4371 95.5543 32.7148 94.7534 31.3276C94.2598 30.4726 93.5445 30.0152 92.7345 29.7783C91.9155 29.536 90.9977 29.5168 90.0868 29.5193L90.0807 29.5177C89.7913 29.519 89.508 29.522 89.2247 29.5249C88.9716 29.5259 88.6937 29.5205 88.4276 29.5084C88.2747 29.5038 88.1255 29.4964 87.978 29.4831C87.9718 29.4815 87.968 29.4837 87.9619 29.482C86.9148 29.3923 86.0266 29.0915 85.5263 28.2251C84.8782 27.1019 85.5974 26.122 86.7205 25.4736C87.8473 24.823 89.3738 24.5064 90.3246 24.7345L89.9945 24.288L90.2443 24.1017L92.9849 27.395L92.6974 27.561C90.3264 25.2934 87.7994 25.1973 86.5364 25.9265C85.7476 26.3823 85.4276 27.1733 85.8898 27.9738C86.1052 28.3468 86.4672 28.5164 86.931 28.5747C87.3988 28.631 87.9662 28.5728 88.5903 28.487L89.1422 28.4119C90.5188 28.2026 92.1128 27.9663 93.5098 28.5015C93.5098 28.5015 93.7818 28.5777 94.151 28.795C94.754 29.1667 95.3145 29.6979 95.7787 30.502Z" fill="black"/>
<path d="M102.276 23.0528C102.24 23.0187 102.203 22.9867 102.163 22.957C101.988 23.058 102.056 22.9413 101.935 23.1094C101.967 23.1376 102.003 23.1634 102.037 23.1958C102.743 23.7985 103.58 24.6051 104.054 25.4251C105.032 27.1193 104.656 28.3882 103.704 28.9378C98.7416 31.8027 91.6291 23.6297 96.2261 20.9757C97.7454 20.0985 99.4316 20.1561 101.071 21.1372L101.277 21.0179L99.567 18.0555L99.3317 18.1914L99.6493 19.0771C99.6493 19.0771 98.3307 18.7865 97.0018 19.5538C94.5498 20.9695 93.4322 23.9515 95.4962 27.5264C96.4833 29.2362 99.7221 32.1537 103.11 30.1975C104.731 29.2617 105.578 27.5243 104.281 25.2783C103.823 24.4854 103.046 23.6961 102.276 23.0528Z" fill="black"/>
<path d="M100.094 23.996L100.233 22.281L99.9906 22.2652L99.184 27.24L99.5774 27.0128C99.7165 26.2528 99.8239 25.6646 99.8584 25.475C100.03 24.5587 100.643 24.2048 101.495 23.5569C101.683 23.4098 102.112 23.1421 102.492 22.9228L103.374 22.3944L103.247 22.1754L100.094 23.996Z" fill="black"/>
</g>
<defs>
<filter id="filter0_d_401_1096" x="67.8741" y="2.54944" width="279.889" height="449.242" filterUnits="userSpaceOnUse" color-interpolation-filters="sRGB">
<feFlood flood-opacity="0" result="BackgroundImageFix"/>
<feColorMatrix in="SourceAlpha" type="matrix" values="0 0 0 0 0 0 0 0 0 0 0 0 0 0 0 0 0 0 127 0" result="hardAlpha"/>
<feOffset dy="15"/>
<feGaussianBlur stdDeviation="4"/>
<feComposite in2="hardAlpha" operator="out"/>
<feColorMatrix type="matrix" values="0 0 0 0 0 0 0 0 0 0 0 0 0 0 0 0 0 0 0.44 0"/>
<feBlend mode="normal" in2="BackgroundImageFix" result="effect1_dropShadow_401_1096"/>
<feBlend mode="normal" in="SourceGraphic" in2="effect1_dropShadow_401_1096" result="shape"/>
</filter>
<clipPath id="clip0_401_1096">
<rect width="20" height="12.287" fill="white" transform="translate(83.2227 27.4919) rotate(-30)"/>
</clipPath>
</defs>
</svg>
