<svg  viewBox="0 0 369 323" fill="none" xmlns="http://www.w3.org/2000/svg">
<path d="M204.141 130.434C205.224 129.869 205.585 128.739 205.044 127.609C204.502 126.667 203.599 126.667 202.696 127.044C201.431 127.609 199.986 128.362 198.722 128.927C178.673 139.85 158.444 150.962 138.395 161.885C136.769 162.827 135.324 164.522 132.615 163.957C133.879 156.047 134.963 148.137 136.408 140.227C141.285 111.412 146.703 82.7856 152.845 54.1591C153.206 52.2758 154.651 49.6391 151.941 48.8858C149.774 48.3208 149.593 51.1458 148.871 52.8408C146.884 58.1141 146.523 63.5757 145.439 69.0373C139.298 100.677 133.518 132.317 128.641 164.145C128.1 167.158 126.835 168.665 124.487 169.983C107.509 179.777 90.5306 189.758 73.3718 199.552C72.4687 200.117 71.3849 201.435 69.9399 200.493C69.9399 199.552 69.9399 198.61 69.9399 197.857C72.288 150.774 76.081 103.879 81.319 57.1724C81.8609 51.5224 82.5834 46.0608 83.1252 40.4108C83.3058 39.2808 83.1252 37.9625 81.6802 37.7742C80.4159 37.5858 79.6934 38.5275 79.5128 39.6575C79.1516 40.9758 78.7903 42.1058 78.6097 43.4241C75.1779 59.6207 71.7461 76.0056 68.3144 92.2022C67.9531 94.2739 66.147 97.2872 68.8563 98.0405C72.1074 98.9822 71.0237 95.0272 72.1074 93.5205C72.288 93.3322 72.6493 93.5205 73.0105 93.5205C73.0105 95.7805 73.1911 98.0405 73.0105 100.3C69.7593 132.882 67.5919 165.652 66.147 198.422C65.9663 202.942 64.1601 205.202 60.5477 207.462C41.402 218.95 22.2563 230.815 3.11056 242.491C1.84622 243.245 -0.321184 243.998 0.0400563 246.07C0.401296 248.33 2.5687 247.953 4.01366 248.141C18.4633 250.966 33.0935 253.791 47.7237 256.428C49.3493 256.805 51.3361 257.181 51.5167 254.733C51.6974 252.661 49.7105 252.661 48.4462 252.285C41.9439 250.966 35.2609 249.836 28.7586 248.706C22.2563 247.388 15.5734 246.07 9.07105 244.94C9.07105 244.563 9.07104 243.998 8.89042 243.621C27.4943 232.321 46.2787 220.833 65.6051 208.968C65.4244 213.865 65.2439 217.443 65.0632 221.022C64.1601 246.823 63.0764 272.813 63.4377 298.614C63.6183 306.148 64.702 313.493 68.6756 320.273C70.3012 322.909 71.9268 324.039 73.733 320.461C78.7903 310.103 83.8477 299.744 88.905 289.386C89.4469 288.068 89.9888 286.749 88.5438 285.996C86.557 284.678 86.0151 286.561 85.2926 287.691C84.3895 289.386 83.6671 291.081 82.764 292.776C78.9709 300.309 75.3586 308.031 71.2043 316.506C68.495 311.421 67.5919 306.901 67.5919 302.381C66.6888 271.871 68.3144 241.361 69.3981 210.663C69.3981 208.592 69.9399 206.708 71.9268 205.578C89.9888 195.22 107.509 184.297 125.932 174.692C126.293 175.068 126.655 175.257 127.016 175.633C124.487 196.915 121.778 218.008 119.249 239.101C118.165 247.765 116.901 256.616 115.817 265.28C115.637 266.786 115.276 268.67 117.082 269.046C119.069 269.611 119.43 267.54 119.61 266.221C120.152 263.02 120.694 260.006 121.055 256.805C124.126 230.25 127.016 203.507 130.809 177.14C131.351 172.808 133.157 170.36 136.95 168.288C158.444 156.8 179.757 144.935 201.07 133.259C201.973 131.752 203.057 131.187 204.141 130.434Z" fill="#19191A"/>
<path d="M234.846 194.466C232.859 193.901 232.498 195.596 232.317 197.103C231.775 200.87 229.789 203.695 226.537 205.39C223.467 207.085 221.48 206.896 221.841 202.376C222.383 193.901 222.925 185.615 223.286 177.14C223.648 169.607 225.634 163.015 229.247 156.423C234.485 146.63 238.097 135.895 240.445 124.972C241.348 121.017 241.709 116.874 239.723 112.919C238.82 111.224 237.916 109.34 235.749 109.529C233.762 109.717 233.582 111.789 233.04 113.295C227.802 128.362 224.551 143.805 221.299 159.437C218.59 172.432 209.198 180.906 199.806 190.7C199.806 185.803 199.986 182.601 199.806 179.211C199.444 176.198 200.889 172.055 197.458 170.737C194.387 169.607 192.762 173.562 190.775 175.445C189.691 177.14 189.691 179.4 187.885 180.718C187.523 179.776 186.982 178.835 186.62 177.893C183.189 177.14 179.757 177.328 176.506 178.646C165.127 183.166 156.638 201.246 160.069 213.3C162.959 223.658 172.171 227.236 180.841 221.21C185.175 218.196 189.51 214.43 191.497 209.533C195.471 199.928 201.792 192.583 209.559 186.18C212.991 183.355 215.52 179.023 218.951 174.88C218.59 184.485 218.048 193.336 217.868 202.188C217.868 204.825 216.242 208.403 219.313 209.91C222.383 211.416 225.634 210.286 228.524 208.591C232.498 206.143 235.027 202.753 235.749 198.045C236.291 196.726 236.652 194.843 234.846 194.466ZM236.472 115.932C237.916 123.654 233.401 140.415 227.982 147.383C230.15 136.083 233.04 126.667 236.472 115.932ZM192.942 199.74C189.691 207.273 185.356 213.676 178.673 218.385C172.532 222.716 166.752 220.456 164.043 213.3C159.889 202.376 171.448 179.211 184.272 182.036C185.356 182.225 186.62 181.471 187.704 181.283C188.246 184.673 187.162 188.251 188.607 191.641C189.33 193.148 189.51 195.22 191.317 195.596C194.206 196.161 193.845 197.856 192.942 199.74ZM195.832 189.57C195.651 190.7 195.471 192.018 194.026 191.83C193.303 191.641 192.581 190.7 192.4 189.758C191.497 185.05 191.858 180.718 196.013 176.198C196.916 181.471 196.555 185.615 195.832 189.57Z" fill="#19191A"/>
<path d="M366.698 0.107774C363.808 -0.645555 364.531 2.74442 363.628 4.25108C363.628 4.43941 363.628 4.62775 363.447 4.81608C352.61 47.7558 343.218 90.8839 335.451 134.577C332.381 151.715 329.671 168.853 326.781 185.992C326.601 187.687 326.781 189.382 328.768 189.382C330.936 189.382 330.755 187.122 330.936 185.615C340.147 124.972 352.249 64.894 367.24 5.5694C367.782 3.68607 369.408 0.861103 366.698 0.107774Z" fill="#19191A"/>
<path d="M323.892 125.349C324.433 124.03 324.795 122.712 323.169 121.959C321.543 121.205 320.821 122.524 320.279 123.654C319.737 124.784 319.376 126.102 318.834 127.232C313.054 141.357 304.926 153.975 294.631 164.898C292.825 166.782 291.199 170.36 288.129 168.288C285.239 166.405 286.864 163.203 287.948 160.755C289.935 155.482 291.38 150.208 291.922 144.558C292.102 143.052 291.741 140.415 290.477 141.168C286.142 144.37 286.503 140.415 285.419 138.155C283.794 134.577 281.988 136.837 280.543 138.343C270.789 148.89 266.093 161.32 265.732 176.01C265.913 178.458 265.913 180.907 266.093 183.355C266.274 184.862 266.093 186.933 268.08 187.498C269.706 187.875 270.609 186.557 271.692 185.427C275.485 181.66 278.917 177.517 281.807 172.997C282.53 171.678 283.071 169.607 285.239 171.49C289.393 174.88 292.644 172.432 295.534 169.418C304.023 160.755 311.068 151.15 316.667 140.415C319.557 135.519 321.544 130.434 323.892 125.349ZM269.886 181.472C268.802 166.217 272.957 153.787 282.53 142.11C285.42 158.307 281.988 170.925 269.886 181.472Z" fill="#19191A"/>
<path d="M267.358 86.7405C265.913 85.0455 264.468 85.7989 263.203 87.1172C261.578 89.0005 261.217 91.4488 260.675 93.8971C255.979 116.309 251.282 138.909 246.586 161.32C244.238 172.243 242.071 183.355 240.084 192.207C239.903 201.247 243.696 206.331 248.754 206.52C250.199 206.52 252.005 206.708 252.366 204.825C252.727 202.753 251.102 202.565 249.657 202.565C246.947 202.565 245.503 200.682 244.599 198.233C243.516 194.843 244.238 191.453 244.961 188.252C251.282 158.307 257.604 128.362 263.926 98.2288C264.468 95.5921 264.468 92.7672 267.358 91.0722C268.802 90.1305 268.622 88.2472 267.358 86.7405Z" fill="#19191A"/>
<path d="M331.116 205.201C326.601 205.955 323.711 208.78 321.905 213.111C320.46 216.69 319.196 220.456 315.764 222.905C314.861 223.47 314.319 224.976 315.041 225.165C318.654 226.671 318.112 230.815 319.918 233.451C321.002 234.958 322.085 235.335 323.53 234.205C331.478 228.931 336.716 221.586 338.522 212.546C338.522 207.273 335.451 204.448 331.116 205.201ZM333.645 215.748C331.839 220.268 329.31 224.411 325.698 227.613C324.975 228.366 324.253 229.496 322.989 229.12C321.544 228.555 322.266 226.86 321.905 225.73C321.905 219.891 325.878 214.241 330.936 212.923C332.019 212.735 333.284 211.981 333.826 213.111C334.187 213.865 334.006 214.995 333.645 215.748Z" fill="#19191A"/>
</svg>
