<svg viewBox="0 0 16 16" fill="none" xmlns="http://www.w3.org/2000/svg">
<path d="M1.66699 8.00033C1.66699 5.01477 1.66699 3.52199 2.59449 2.59449C3.52199 1.66699 5.01477 1.66699 8.00033 1.66699C10.9859 1.66699 12.4787 1.66699 13.4062 2.59449C14.3337 3.52199 14.3337 5.01477 14.3337 8.00033C14.3337 10.9859 14.3337 12.4787 13.4062 13.4062C12.4787 14.3337 10.9859 14.3337 8.00033 14.3337C5.01477 14.3337 3.52199 14.3337 2.59449 13.4062C1.66699 12.4787 1.66699 10.9859 1.66699 8.00033Z" stroke="currentColor" stroke-linejoin="round"/>
<path d="M11 8C11 9.65687 9.65687 11 8 11C6.34315 11 5 9.65687 5 8C5 6.34315 6.34315 5 8 5C9.65687 5 11 6.34315 11 8Z" stroke="currentColor"/>
<path d="M11.672 4.33301H11.666" stroke="currentColor" stroke-width="1.33333" stroke-linecap="round" stroke-linejoin="round"/>
</svg>
