<svg  viewBox="0 0 16 16" fill="none" xmlns="http://www.w3.org/2000/svg">
<path d="M2.99967 6.33301H2.66634C2.0378 6.33301 1.72353 6.33301 1.52827 6.52827C1.33301 6.72354 1.33301 7.03781 1.33301 7.66634V13.333C1.33301 13.9615 1.33301 14.2758 1.52827 14.4711C1.72353 14.6663 2.0378 14.6663 2.66634 14.6663H2.99967C3.62821 14.6663 3.94248 14.6663 4.13775 14.4711C4.33301 14.2758 4.33301 13.9615 4.33301 13.333V7.66634C4.33301 7.03781 4.33301 6.72354 4.13775 6.52827C3.94248 6.33301 3.62821 6.33301 2.99967 6.33301Z" stroke="currentColor"/>
<path d="M4.33301 2.83301C4.33301 3.66143 3.66143 4.33301 2.83301 4.33301C2.00458 4.33301 1.33301 3.66143 1.33301 2.83301C1.33301 2.00458 2.00458 1.33301 2.83301 1.33301C3.66143 1.33301 4.33301 2.00458 4.33301 2.83301Z" stroke="currentColor"/>
<path d="M8.21701 6.33301H7.66634C7.03781 6.33301 6.72354 6.33301 6.52827 6.52827C6.33301 6.72354 6.33301 7.03781 6.33301 7.66634V13.333C6.33301 13.9615 6.33301 14.2758 6.52827 14.4711C6.72354 14.6663 7.03781 14.6663 7.66634 14.6663H7.99967C8.62821 14.6663 8.94247 14.6663 9.13774 14.4711C9.33301 14.2758 9.33301 13.9615 9.33301 13.333L9.33307 10.9997C9.33307 9.89521 9.68507 8.99974 10.7249 8.99974C11.2448 8.99974 11.6663 9.44747 11.6663 9.99974V12.9997C11.6663 13.6283 11.6663 13.9425 11.8616 14.1378C12.0568 14.3331 12.3711 14.3331 12.9997 14.3331H13.3321C13.9605 14.3331 14.2747 14.3331 14.47 14.1379C14.6653 13.9427 14.6653 13.6285 14.6655 13.0001L14.6664 9.33314C14.6664 7.67634 13.0906 6.33317 11.5309 6.33317C10.6429 6.33317 9.85081 6.76841 9.33307 7.44901C9.33301 7.02894 9.33301 6.81894 9.24181 6.66301C9.18401 6.56425 9.10174 6.48203 9.00301 6.42425C8.84707 6.33301 8.63707 6.33301 8.21701 6.33301Z" stroke="currentColor" stroke-linejoin="round"/>
</svg>
