<svg viewBox="0 0 163 189" fill="none" xmlns="http://www.w3.org/2000/svg">
<path d="M162.344 91.7132C161.901 74.0678 153.082 58.2062 139.281 47.3117C124.825 35.8998 106.705 31.6265 90.4826 23.503C82.3881 19.4496 74.5455 14.4843 69.0071 7.22389C66.7157 4.21988 63.903 1.06622 60.0553 0.153532C56.6834 -0.646398 52.4557 1.77319 51.7877 5.23261C49.9901 14.5423 49.9828 24.3384 49.677 33.8404C49.5022 39.2749 49.4753 44.7064 49.1793 50.1375C49.0461 52.5819 48.8848 55.0246 48.7062 57.4663C48.548 59.6305 47.8973 61.606 47.9917 63.7613C48.2016 68.5546 47.3533 73.581 46.9448 78.3956C46.5317 83.266 46.162 88.1414 45.8225 93.0156C45.0813 103.663 44.4892 114.319 43.7968 124.97C43.5023 129.499 43.3891 134.052 42.9479 138.558C42.7509 140.568 42.907 142.619 42.643 144.652C42.505 145.714 42.5114 148.839 41.9168 149.66C41.3445 150.45 41.6092 150.269 40.3766 150.011C39.5376 149.836 38.7094 149.464 37.8932 149.208C35.6176 148.494 33.2924 147.944 30.936 147.576C27.6823 147.067 24.3359 146.855 21.0488 147.129C13.9774 147.718 6.26323 150.994 2.53578 157.35C-2.11998 165.289 -0.150799 175.397 6.69133 181.28C13.1846 186.864 23.8871 190.01 32.1986 187.726C39.5116 185.716 45.5982 182.345 50.4847 176.396C58.7608 166.321 59.9044 154.221 61.0836 141.767C62.8609 122.996 63.8 104.158 65.23 85.3602C65.5191 81.5611 65.8147 77.7601 66.2232 73.9716C75.2335 77.3926 84.8575 78.472 94.3222 79.8147C98.3342 80.3837 102.304 81.1984 106.245 81.9144C109.889 82.5763 113.705 82.8942 117.258 83.9557C125.352 86.3742 132.835 90.1702 139.097 95.998C142.033 98.7304 144.644 101.815 146.818 105.188C148.417 107.67 149.47 111.469 152.538 112.517C157.534 114.224 159.007 109.415 160.676 106.093C161.622 104.208 161.245 102.083 161.656 100.059C162.215 97.3131 162.423 94.5119 162.344 91.7132Z" fill="currentColor"/>
</svg>
