<svg width="94" height="94" viewBox="0 0 94 94" fill="none" xmlns="http://www.w3.org/2000/svg">
<path d="M47 94C72.9574 94 94 72.9574 94 47C94 21.0426 72.9574 0 47 0C21.0426 0 0 21.0426 0 47C0 72.9574 21.0426 94 47 94Z" fill="#FAE3F1"/>
<path d="M89.1785 49.2899C90.4546 25.9144 72.5395 5.93038 49.164 4.65429C25.7885 3.3782 5.80442 21.2933 4.52834 44.6688C3.25225 68.0443 21.1674 88.0284 44.5429 89.3045C67.9184 90.5805 87.9024 72.6654 89.1785 49.2899Z" fill="#FAE3F1"/>
<path d="M57.2868 20.2189C51.434 20.9283 46.8227 25.1849 44.6944 30.683C41.1472 25.717 35.6491 22.8792 29.7963 23.766C20.751 25.0075 14.5434 34.4076 15.7849 44.6943C17.9132 61.8981 45.7585 76.0868 50.7246 77.683C54.4491 75.2 78.3925 54.0943 76.0868 36.8906C74.8453 26.6038 66.3321 19.1547 57.2868 20.2189Z" fill="#D7509E"/>
</svg>
