<svg viewBox="0 0 131 71" fill="none" xmlns="http://www.w3.org/2000/svg">
<g clip-path="url(#clip0_508_587)">
<path d="M0 58.2482C0 59.8363 0.587288 61.0371 1.76165 61.851C2.93607 62.6648 4.19148 62.9526 5.52788 62.7145C6.78323 62.4763 7.66408 62.0396 8.17043 61.4044C8.67658 60.7692 8.92978 59.7171 8.92978 58.2482V40.9786C8.92978 39.7478 8.4945 38.7056 7.62372 37.8522C6.75315 36.9985 5.69012 36.5718 4.4346 36.5718C3.21966 36.5718 2.17689 36.9985 1.30616 37.8522C0.43544 38.7056 0 39.7477 0 40.9786V58.2482ZM13.9716 65.6325C13.9716 66.784 14.3867 67.6473 15.2168 68.2231C16.0471 68.7988 17.1102 69.0865 18.406 69.0865C19.7424 69.0865 20.8257 68.7986 21.6559 68.2231C22.4861 67.6474 22.9012 66.784 22.9012 65.6325V25.3764C22.9012 24.1854 22.4657 23.163 21.5952 22.3095C20.7245 21.4561 19.6614 21.0292 18.406 21.0292C17.1911 21.0292 16.1482 21.4561 15.2776 22.3095C14.4068 23.1632 13.9716 24.1854 13.9716 25.3764V65.6325ZM27.8824 67.5381C27.8824 68.6895 28.3076 69.5529 29.1581 70.1287C30.0085 70.7043 31.1019 70.9922 32.4385 70.9922C33.7343 70.9922 34.7973 70.7043 35.6275 70.1287C36.4577 69.5529 36.8729 68.6895 36.8729 67.5381V30.7954C36.8729 29.5648 36.4375 28.5126 35.5668 27.6392C34.6961 26.7659 33.6534 26.3293 32.4385 26.3293C31.1829 26.3293 30.1098 26.7659 29.2189 27.6392C28.328 28.5126 27.8825 29.5648 27.8825 30.7954V67.5381H27.8824ZM41.854 67.7168C41.854 69.9004 43.3523 70.9922 46.3491 70.9922C49.3459 70.9922 50.8442 69.9004 50.8442 67.7168V8.16627C50.8442 4.83142 49.8116 2.94569 47.7462 2.50894C46.4098 2.19131 45.0935 2.56847 43.7977 3.64039C42.5018 4.7123 41.8538 6.22086 41.8538 8.16622V67.7168H41.854ZM56.0686 69.4437V4.65276C56.0686 2.58839 56.6963 1.35768 57.9518 0.960606C60.665 0.325444 63.3581 0.0078125 66.031 0.0078125C72.2269 0.0078125 77.9979 1.43703 83.3435 4.29546C88.6891 7.15389 93.0123 11.0544 96.3127 15.9971C99.6133 20.94 101.527 26.3887 102.053 32.3439C104.524 31.3116 107.156 30.7955 109.95 30.7955C115.62 30.7955 120.469 32.7607 124.499 36.691C128.528 40.6215 130.543 45.3458 130.543 50.8642C130.543 56.4223 128.528 61.1664 124.499 65.0968C120.469 69.0271 115.64 70.9923 110.011 70.9923L57.1618 70.9327C56.7972 70.8136 56.5238 70.5952 56.3416 70.2777C56.1594 69.9601 56.0686 69.6819 56.0686 69.4437Z" fill="url(#paint0_linear_508_587)"/>
</g>
<defs>
<linearGradient id="paint0_linear_508_587" x1="163528" y1="2678.39" x2="163528" y2="96469.1" gradientUnits="userSpaceOnUse">
<stop stop-color="#FF8800"/>
<stop offset="1" stop-color="#FF3300"/>
</linearGradient>
<clipPath id="clip0_508_587">
<rect width="130.543" height="71" fill="white"/>
</clipPath>
</defs>
</svg>
