<svg  viewBox="0 0 131 128" fill="none" xmlns="http://www.w3.org/2000/svg">
<g clip-path="url(#clip0_508_580)">
<path d="M65.2715 0C29.2219 0 0 28.6526 0 64C0 99.3474 29.2219 128 65.2715 128C101.321 128 130.543 99.3474 130.543 64C130.543 28.657 101.321 0.00436711 65.2715 0ZM95.206 92.3032C94.0346 94.1898 91.5271 94.7794 89.6119 93.6308C74.2862 84.4468 54.992 82.3724 32.2728 87.4601C30.0815 87.9536 27.8991 86.6085 27.4002 84.4599C26.8969 82.3113 28.2643 80.1714 30.46 79.6823C55.3216 74.1142 76.6512 76.5118 93.8565 86.8181C95.7717 87.9754 96.3818 90.4254 95.206 92.3032ZM103.192 74.8828C101.718 77.2323 98.582 77.966 96.1903 76.5249C78.651 65.9521 51.901 62.8908 31.1504 69.0658C28.4603 69.865 25.6187 68.3758 24.7992 65.7425C23.9886 63.1047 25.5073 60.3229 28.193 59.5193C51.8965 52.4665 81.3678 55.8815 101.513 68.0221C103.909 69.4676 104.666 72.5377 103.192 74.8828ZM103.878 56.7331C82.8376 44.4834 48.133 43.3567 28.046 49.3309C24.8214 50.2916 21.4098 48.5055 20.4344 45.3437C19.459 42.1819 21.2762 38.8367 24.5052 37.8759C47.5629 31.0152 85.8885 32.3385 110.109 46.4355C113.008 48.1256 113.961 51.7983 112.242 54.6369C110.527 57.4843 106.773 58.4232 103.878 56.7331Z" fill="#2EBD59"/>
</g>
<defs>
<clipPath id="clip0_508_580">
<rect width="130.543" height="128" fill="white"/>
</clipPath>
</defs>
</svg>
