<svg  viewBox="0 0 107 81" fill="none" xmlns="http://www.w3.org/2000/svg">
<path d="M103.035 51.267C102.851 51.267 102.668 51.5864 102.484 51.7141C100.223 53.3751 97.5945 53.0557 95.7608 50.8837C94.416 49.3505 93.9881 47.434 93.8048 45.4536C93.7436 44.9426 94.0493 44.176 93.3158 43.9843C92.7657 43.8566 92.5212 44.4315 92.1544 44.8148C89.1593 47.8173 86.1643 50.8198 83.1692 53.8223C82.9858 53.6945 82.8635 53.5667 82.6801 53.4389C82.8635 52.864 82.9858 52.2252 83.2303 51.6502C85.0029 46.859 86.8366 42.0678 88.6092 37.2766C88.976 36.2545 89.2205 35.4241 87.6312 35.999C87.2645 36.1268 86.7755 36.3823 86.6532 35.6796C86.4698 34.5936 85.6752 34.913 85.064 34.913C82.9858 35.0408 81.1521 35.8712 79.5017 37.085C76.3232 39.4487 73.9394 42.5789 71.8612 45.9647C71.9223 46.0286 71.9834 46.0925 71.9834 46.0925C71.9223 46.0286 71.8612 45.9647 71.8612 45.9647C71.7389 46.1563 71.6167 46.348 71.4944 46.5396C70.9443 47.3701 70.4553 48.3284 69.7218 48.9672C65.0153 52.9918 60.1864 56.8247 54.8686 59.955C54.6241 60.0827 54.3185 60.2105 54.0129 60.3383C53.3405 60.5299 52.6682 60.6577 52.3014 59.8272C51.9347 58.9967 52.4237 58.5496 53.096 58.1663C54.6853 57.208 56.1522 56.122 57.3747 54.6527C58.1082 53.8223 58.5972 52.864 58.6583 51.778C58.7194 50.181 57.9248 49.6699 56.6412 50.4365C54.563 51.6502 52.6682 53.3112 52.1792 55.7387C51.629 58.294 49.9176 58.8051 48.0227 59.2523C46.6169 59.5717 45.1499 59.6995 43.6829 59.8911C42.8883 60.0189 42.5215 59.7633 42.7049 58.869C46.0056 52.1613 49.2452 45.5175 52.5459 38.8098C52.7293 38.4904 52.9738 38.1071 52.6681 37.7238C52.2403 37.2767 51.8735 37.7238 51.5679 37.9794C50.5288 38.746 49.5508 39.6403 48.4506 40.343C47.9004 40.6624 47.4115 42.0678 46.678 40.7902C46.1279 39.8958 45.0887 38.6821 46.9224 37.7238C48.6339 36.8295 49.8564 35.2324 51.0789 33.6992C51.3234 33.3798 51.8124 32.9965 51.3845 32.5493C50.8956 32.1022 50.651 32.6771 50.4065 32.9965C49.2452 34.4019 48.0838 35.7435 46.5557 36.7656C46.1278 37.0211 45.6388 37.7238 45.211 37.0211C44.8442 36.4462 44.233 35.7435 44.722 34.913C44.9665 34.4658 45.3332 34.1464 45.7 33.7631C52.9738 25.7778 60.2475 17.7925 67.5213 9.80712C68.6827 8.52947 69.8441 7.18795 70.0886 5.27147C70.2719 3.41888 69.7829 2.90781 68.0103 2.90781C63.1815 2.90781 58.5972 4.18546 54.2574 6.35747C53.5239 6.74076 52.9738 7.12406 52.3014 6.10194C48.634 0.927448 43.3773 -0.222439 37.6927 0.0330918C34.3309 0.22474 32.3138 3.03557 32.4971 6.61299C32.5583 8.27394 32.9861 9.87101 33.5974 11.4042C36.5313 18.4952 39.4042 25.5861 42.3993 32.6132C43.1328 34.2742 43.255 35.4879 41.7269 36.7017C41.2379 37.085 40.3822 37.5961 40.6267 38.2988C40.9323 39.1931 41.9714 38.9376 42.766 39.0654C43.255 39.1293 43.744 39.0015 44.233 38.9376C44.6609 38.8737 44.9054 39.0015 45.1499 39.3848C46.3724 41.1096 46.3112 42.2595 44.7831 43.7288C44.1719 44.3037 43.5606 45.0065 43.0105 45.6453L42.9494 45.7731C40.9323 47.8812 38.854 49.9254 36.8369 52.0336C30.1133 59.2523 23.3896 66.5349 16.7271 73.8175C16.177 74.2647 15.6879 74.7119 15.1378 75.2229C13.9153 75.2868 12.6929 75.4146 11.4704 75.4146C8.65865 75.4785 5.84696 75.0952 3.27974 73.8814C1.20151 72.9231 0.712505 71.9649 1.2015 69.6651C2.05724 65.5767 3.95208 62.0631 6.58043 58.9329C12.5095 51.9697 19.661 46.6035 27.4849 42.1317C29.013 41.3013 30.6634 40.8541 32.3138 40.4069C33.5974 40.0875 33.903 40.4708 33.414 41.6846C32.3138 44.4315 30.6023 46.5396 28.2184 48.2006C27.9128 48.3922 27.2405 48.6478 27.5461 49.1588C27.9128 49.7976 28.4018 49.2866 28.7686 49.0311C31.7637 46.9868 33.7196 44.176 34.8199 40.6624C35.2477 39.3209 34.8198 39.0015 33.4751 39.1931C30.6634 39.5764 28.0351 40.5347 25.5901 42.004C19.2332 45.8369 13.3652 50.4365 8.10853 55.8026C4.44108 59.5717 1.56825 63.8518 0.284636 69.1541C-0.448856 72.2205 0.162402 73.562 2.97412 74.9035C5.96921 76.309 9.08655 76.5645 12.265 76.5006C12.754 76.5006 13.7931 75.8618 13.6097 77.2672C13.6708 77.2672 13.7931 77.2672 13.8542 77.2033C13.9154 77.1394 14.0376 77.1394 14.0987 77.1394C14.0376 77.2033 13.9154 77.2033 13.8542 77.2033C13.7931 77.2033 13.6708 77.2672 13.6097 77.2672C13.4875 77.395 13.4263 77.4588 13.3041 77.5866C13.1818 77.7783 13.0596 77.906 12.8763 78.0977C12.5095 78.2254 12.2039 78.5448 12.0816 78.9281C11.7149 79.3114 10.9203 79.6308 11.287 80.2058C11.7149 80.9085 12.265 80.1419 12.6317 79.8225C15.3212 77.906 18.3163 76.4367 21.2503 75.0313C21.617 74.9035 22.0449 74.8397 22.4116 74.7119C22.7784 74.5841 23.2674 74.4563 23.084 73.8814C22.9006 73.3703 22.4727 73.6259 22.1671 73.6897C21.3725 73.8814 20.5779 74.1369 19.7833 74.3925C18.9887 74.4564 18.1941 74.7119 17.4606 75.0313C18.4386 72.6038 20.5168 71.1344 22.1671 69.3457C29.1353 61.6798 36.2257 54.1417 43.255 46.5396C43.3772 46.4119 43.4995 46.2841 43.6218 46.1564H43.5606C43.744 46.0286 43.9274 45.8369 44.0496 45.7092C46.189 44.176 47.8393 41.9401 50.5288 40.2791C47.9005 46.7952 44.7831 52.353 42.1548 58.1663C41.9714 58.5496 41.788 58.9968 41.6047 59.3801C41.5435 59.5078 41.4213 59.6356 41.3602 59.7633C41.1768 60.1466 40.9934 60.5299 40.8712 60.8494C38.6707 64.9378 36.837 69.218 36.1646 73.9453C36.1035 74.3925 35.859 75.0313 36.5313 75.2229C37.0203 75.3507 37.2037 74.7758 37.4482 74.3925C38.7929 71.9649 39.6487 69.4096 39.832 66.6627C39.9543 64.4268 40.8712 62.7019 42.2159 61.1049H42.3993L42.5215 61.041C42.8272 60.9771 43.0716 60.9132 43.3772 60.8494C45.3943 60.7855 47.4115 60.5938 49.3063 59.955C50.3454 59.5717 51.3234 59.1245 51.9346 60.7216C52.2403 61.4882 53.096 61.4882 53.8906 61.4243C54.9297 61.2965 55.8466 60.7855 56.7635 60.2105C60.4309 57.9108 63.8539 55.2277 67.2769 52.6724C67.4602 52.8002 67.5825 52.9279 67.7658 53.0557C65.6876 57.7191 63.6094 62.3825 62.3258 67.3654C62.2035 67.8126 61.5923 68.5153 62.3869 68.8347C63.0593 69.1541 63.2426 68.2597 63.4871 67.8125C65.7487 63.8518 67.8881 59.8911 69.7829 55.7387C70.2719 54.7166 70.6998 53.6306 71.6167 52.9279C71.4333 52.864 71.3111 52.864 71.1277 52.9279C71.3111 52.9279 71.4944 52.864 71.6167 52.9279C71.9223 52.864 72.2279 52.7363 72.4113 52.4168C72.5335 52.353 72.5947 52.2252 72.7169 52.1613C72.9003 52.0335 73.0837 51.8419 73.267 51.7141C73.4504 51.5225 73.6338 51.2669 73.8171 51.0753C74.0005 51.0114 74.1839 50.9475 74.3062 50.9475C74.4284 50.9475 74.4895 50.8837 74.5506 50.7559C78.5237 47.6895 81.7022 43.8566 84.5139 39.7042C85.2474 38.5543 86.1642 37.7877 87.8146 37.5322C85.9197 42.5789 84.086 47.434 82.3134 52.2891C81.9467 53.2473 80.7242 54.5888 81.8244 55.3554C82.9858 56.2498 84.0249 54.7805 84.8806 53.95C87.2645 51.5864 89.6483 49.1588 91.971 46.7952C92.7045 46.0286 93.1324 46.0286 93.3158 47.1785C93.4992 48.2645 93.8048 49.2866 94.3549 50.2448C95.2106 51.8419 96.372 52.864 97.9612 53.6306C99.9783 54.5889 101.873 53.1834 103.89 53.4389C104.502 53.5028 105.296 51.6503 106.03 50.6281C104.502 49.606 104.074 51.4586 103.035 51.267ZM56.2133 51.778C56.6412 51.4586 57.0691 50.8198 57.6192 51.267C58.0471 51.6503 57.8026 52.353 57.497 52.864C56.3967 54.6527 54.9909 56.0581 52.607 56.7609C53.4628 54.525 54.6241 52.9279 56.2133 51.778ZM52.118 8.72113C52.3014 11.2764 51.8124 13.3207 49.9176 14.6622C49.1229 15.2372 48.145 15.7482 47.2892 14.79C46.4335 13.7679 47.0447 12.8735 47.7782 12.1069C48.9396 10.8293 50.3454 9.80714 52.118 8.72113ZM44.1107 37.7238C43.6217 38.6182 42.766 38.171 41.788 38.171C42.3382 37.2767 42.7049 36.3823 43.5606 36.4462C43.9885 36.4462 44.3552 37.2767 44.1107 37.7238ZM44.2941 33.6992C44.233 33.7631 44.1108 33.827 43.9274 33.8909C43.3161 33.3798 43.1939 32.6132 42.8883 31.9105C40.1377 25.2667 37.326 18.6229 34.5754 11.9791C33.903 10.2543 33.2917 8.52948 33.1695 6.67688C32.9861 3.54663 34.5142 1.37463 37.4482 1.05522C42.3381 0.544157 46.7391 1.88569 50.3454 5.46311C51.9347 7.06018 51.8124 7.44348 50.0398 8.78502C49.0618 9.55161 48.0838 10.3182 47.1059 11.0848C46.9225 11.2125 46.8002 11.3403 46.6168 11.532H46.678C46.0667 12.5541 45.6389 13.6401 45.8834 14.8539C45.8834 15.1733 45.9445 15.4927 46.3112 15.5566C46.4335 15.9399 46.678 16.0037 46.9836 16.0037C47.0447 16.1954 47.1058 16.5148 47.2281 16.5787C47.5948 16.6426 47.5948 16.2593 47.6559 16.0037C47.9004 16.1315 48.2061 16.1954 48.4506 16.3232C49.0618 16.962 49.5508 16.8981 49.7953 16.0037C50.162 16.0676 50.4065 16.0037 50.5288 15.5566C50.2843 15.6843 50.0398 15.8121 49.7953 16.0037C50.0398 15.876 50.2843 15.7482 50.5288 15.5566C51.0178 14.9816 51.5679 14.3428 52.0569 13.7679C52.2403 13.9595 52.4237 14.1512 52.607 13.8317C52.7293 13.5762 52.4848 13.4484 52.2403 13.3207C52.607 12.2347 52.9738 11.1487 52.8515 9.99878C52.607 8.52948 53.1572 7.76288 54.4408 7.25182C55.9689 6.61299 57.3747 5.78253 59.0251 5.46311C59.3918 5.33535 59.7586 5.20758 60.1253 5.1437C60.4309 5.46311 60.6754 5.33534 60.8588 5.01593C62.9982 4.18545 65.2597 4.18547 67.5213 3.99382C68.9272 3.86606 69.0495 4.69652 68.805 5.78253C68.5605 6.80465 68.0103 7.63513 67.338 8.40172C59.7586 16.7703 52.0569 25.2667 44.2941 33.6992ZM70.6387 51.2031C70.4553 51.6503 70.2719 52.0974 70.0886 52.5446C68.3771 55.6749 67.2157 59.0606 65.0764 61.8715C66.2989 57.7191 68.1937 53.8861 70.3331 50.181C70.4553 49.9893 70.6387 49.6699 70.8221 49.9254C70.9443 50.1171 70.8832 50.5004 70.8832 50.8198C70.822 50.9475 70.6998 51.0753 70.6387 51.2031ZM73.4504 49.7338C73.6949 49.606 73.9394 49.5421 74.0616 49.606C73.9394 49.5421 73.756 49.606 73.4504 49.7338ZM74.8562 48.52C76.69 45.9647 78.5848 43.4733 81.0909 41.5568C81.2132 41.6846 81.2743 41.7484 81.3966 41.8762C79.5628 44.4315 77.4846 46.7952 74.8562 48.52ZM83.597 38.2988C80.0518 40.7902 77.1178 43.9204 74.4284 47.2423C74.0005 47.7534 73.6338 48.3922 72.778 48.2006C72.8392 47.6895 73.6338 47.1146 72.6558 46.6674C75.5898 41.6207 79.0127 37.085 85.1863 35.6796C84.9418 37.0211 84.3305 37.7238 83.597 38.2988Z" fill="#19191A"/>
</svg>
