<svg viewBox="0 0 360 330" fill="none" xmlns="http://www.w3.org/2000/svg">
<path d="M83.3429 159.382C83.4429 159.59 83.9429 159.799 84.0429 159.694C84.3429 159.486 84.6429 159.069 84.6429 158.756C84.7429 157.296 83.8429 156.462 82.6429 156.045C80.6429 155.315 78.643 155.628 76.8429 156.462C73.143 158.13 69.643 159.903 65.943 161.571C64.043 162.405 62.343 163.761 59.443 163.761C63.243 160.112 65.643 156.358 67.443 152.187C71.843 142.073 72.5429 131.75 69.0429 121.219C67.5429 116.631 64.2429 116.11 61.2429 119.863C59.8429 121.636 59.1429 123.826 58.3429 126.015C52.6429 142.49 46.5429 158.965 40.3429 175.231C39.743 176.69 39.0429 177.942 37.7429 178.88C27.8429 185.97 18.7429 194.104 10.0429 202.654C3.44293 209.118 -0.457069 216.417 0.0429307 226.323C0.642931 237.271 2.04295 248.011 4.44296 258.646C4.64295 259.585 4.44293 261.149 5.54293 261.357C6.94293 261.566 6.94296 259.898 7.44296 258.959C18.943 233.309 29.6429 207.346 39.8429 181.174C40.4429 179.506 41.3429 178.359 42.7429 177.42C47.2429 174.605 51.5429 171.686 56.0429 168.974C62.4429 165.117 69.143 161.78 75.943 158.756C78.243 157.713 81.143 155.315 83.3429 159.382ZM5.94296 258.125C3.94296 249.888 2.74294 242.485 2.14294 234.977C1.64294 229.659 1.14293 224.446 2.04293 219.128C2.54293 215.792 3.64295 212.663 5.84295 210.057C15.0429 199.004 25.8429 189.933 37.5429 181.591C27.9429 207.241 17.343 232.371 5.94296 258.125ZM57.1429 166.055C57.1429 166.264 56.8429 166.576 56.5429 166.681C51.9429 169.496 47.3429 172.311 42.0429 175.543C47.4429 160.633 52.5429 146.661 57.6429 132.689C58.7429 129.769 59.6429 126.85 60.7429 123.93C61.1429 122.887 61.743 121.845 62.443 121.01C64.543 118.299 66.3429 118.612 67.5429 122.053C70.4429 130.395 70.2429 138.736 67.6429 147.182C66.0429 152.291 63.5429 156.879 60.1429 160.946C58.8429 162.301 56.5429 163.24 57.1429 166.055Z" fill="currentColor"/>
<path d="M159.543 63.7661C160.343 61.0551 160.543 57.927 164.643 58.6569C165.643 58.8655 166.843 57.927 167.943 57.4057C171.543 55.5288 175.043 53.5477 178.543 51.6709C179.443 51.1495 180.543 49.8983 181.443 50.5239C182.443 51.2538 181.543 52.6093 181.343 53.652C179.843 62.8277 178.043 72.0035 177.343 81.3878C176.643 87.0183 176.043 92.5446 173.243 98.2795C174.343 97.8624 174.743 97.8624 174.843 97.7581C177.143 93.066 179.443 88.3738 181.743 83.5774C182.643 81.5963 183.643 79.6152 184.543 77.634C184.843 77.0084 185.043 76.3828 185.343 75.7572C185.543 75.6529 185.543 75.4444 185.543 75.2358C185.543 75.2358 185.543 75.2358 185.443 75.2358C185.643 75.0273 185.743 74.7145 185.943 74.506C188.143 69.9181 190.443 65.3302 192.643 60.7423C193.243 59.8039 193.843 58.8655 194.443 57.927C197.243 53.5477 199.943 49.0641 204.143 45.8317C204.443 46.1445 204.643 46.3531 204.943 46.6659C204.343 48.8556 203.743 51.0452 203.043 53.2349C201.243 58.8655 199.343 64.3918 197.543 70.0223C196.943 72.0035 196.443 74.1931 199.043 75.2358C201.343 76.1742 206.143 74.8188 207.643 72.8376C207.943 72.4205 208.343 72.0035 207.943 71.4821C207.543 70.9608 207.043 71.2736 206.643 71.5864C205.643 72.4205 204.443 73.1504 203.243 73.4633C201.943 73.8803 200.343 74.2974 199.243 73.2547C198.043 72.1077 199.043 70.6479 199.443 69.501C202.143 61.0551 204.843 52.505 207.543 44.0591C207.843 43.225 208.643 42.1823 207.843 41.4524C206.843 40.514 206.043 41.8695 205.343 42.3908C199.243 47.083 194.943 53.2349 191.343 60.0124C190.043 60.3253 190.443 61.8893 189.643 62.5149C188.543 65.5387 187.343 68.4583 185.143 70.9608C186.243 67.937 187.343 64.9131 188.443 61.785C191.143 54.9032 193.843 47.9171 196.343 41.0353C196.943 39.367 197.943 38.0115 199.343 36.8645C202.043 34.7791 204.743 32.4852 206.543 29.4614C208.843 25.6034 209.443 21.5368 207.043 17.366C206.543 16.6362 206.043 15.6978 205.043 15.6978C203.843 15.6978 203.743 16.8447 203.443 17.6789C201.543 22.6838 199.343 27.6888 197.843 32.798C195.843 39.5755 190.043 41.3481 185.443 44.9976C184.543 43.225 185.443 42.078 185.543 40.931C185.543 39.9926 186.643 38.5328 185.243 38.3243C184.043 38.0115 184.243 39.7841 183.943 40.7225C183.743 41.5567 183.543 42.2866 183.443 43.1207C183.143 45.936 181.843 47.7086 179.343 49.0641C175.043 51.2538 170.843 53.5477 166.643 56.0502C163.943 57.6142 161.543 57.1971 159.843 55.0075C158.143 52.8178 158.743 50.2111 160.243 48.0214C161.943 45.5189 164.243 43.6421 166.843 42.1823C168.243 41.4524 169.943 40.8268 170.843 43.0164C171.043 43.5378 171.343 44.0592 171.943 43.7463C172.643 43.4335 172.543 42.7036 172.243 42.078C171.143 39.7841 169.243 39.367 167.243 40.2012C163.543 41.7652 160.543 44.2677 158.443 47.9171C157.243 50.0025 156.743 52.4007 157.843 54.4861C159.443 57.5099 158.543 60.4295 157.743 63.2448C155.443 72.1077 153.443 80.9707 152.243 90.0422C152.143 90.772 151.843 91.6062 152.543 92.0233C153.343 92.5446 153.743 91.7105 154.243 91.1891C158.843 85.6628 162.743 79.7195 165.643 73.0462C165.943 72.4206 166.543 71.5864 165.643 71.1693C164.743 70.7522 164.543 71.6907 164.243 72.3163C162.243 76.5913 159.943 80.7621 157.243 84.6201C156.543 85.5585 156.143 86.9141 154.743 86.9141C154.243 86.1842 154.543 85.4543 154.743 84.7244C155.843 77.8426 157.543 70.7522 159.543 63.7661ZM205.143 18.0959C209.043 22.2667 206.643 30.087 198.743 35.1962C200.943 29.2528 203.043 23.7265 205.143 18.0959ZM181.943 81.5963C181.843 81.8048 181.843 82.0134 181.743 82.3262C181.843 82.0134 181.943 81.8048 181.943 81.5963C182.243 80.5536 182.643 79.5109 181.343 78.781C182.643 79.5109 182.343 80.5536 181.943 81.5963ZM186.743 46.3531C188.543 45.3104 190.143 43.8506 191.943 42.7036C192.343 42.3908 192.943 41.7652 193.543 42.2866C194.043 42.7036 193.743 43.3292 193.543 43.9549C191.943 49.8982 189.343 55.4246 187.343 61.0551C185.643 65.7473 183.943 70.3352 182.243 75.0273C182.043 75.4444 181.943 75.8614 181.743 76.3828C181.443 77.1127 181.143 77.8426 180.843 78.5725L180.943 78.781C180.843 79.0938 180.743 79.3024 180.643 79.6152C180.543 79.7194 180.543 79.8237 180.543 79.928C180.343 80.4493 180.143 80.9707 179.943 81.3878C179.443 81.8048 179.643 82.9518 178.543 82.7433C179.743 72.3163 181.543 61.8893 183.443 51.4623C183.843 48.9598 184.843 47.5001 186.743 46.3531Z" fill="currentColor"/>
<path d="M140.243 153.96C139.743 153.647 139.343 153.96 138.843 154.272C137.343 155.419 135.943 156.775 134.343 157.818C129.843 160.737 125.243 162.301 120.443 158.652C119.943 158.235 119.443 158.235 118.743 158.339C115.643 158.443 113.043 159.799 110.643 161.78C106.843 164.804 104.143 168.87 101.243 172.624C99.643 174.605 98.343 176.899 96.143 178.254C95.343 178.776 94.443 179.089 93.643 178.567C92.843 178.046 92.743 177.003 93.0429 176.065C94.143 171.686 94.843 167.202 99.843 165.534C100.443 165.325 101.443 165.117 100.943 164.074C100.543 163.24 99.743 163.657 99.0429 163.761C98.443 163.865 97.943 164.178 97.343 164.491C92.443 167.515 87.243 169.913 82.743 173.562C82.543 173.25 82.243 173.041 82.0429 172.728C82.0429 171.998 82.743 171.164 82.643 170.539C82.643 170.33 82.443 170.121 82.243 169.913C81.243 169.287 80.443 170.539 79.643 171.06C73.143 175.856 67.943 182.008 64.043 189.307C63.643 189.933 62.843 190.975 63.743 191.497C64.943 192.331 65.143 190.767 65.443 190.037C67.743 185.658 70.643 181.695 74.043 178.15C75.443 176.795 76.643 175.022 79.143 174.397C78.743 176.795 77.943 178.776 76.843 180.653C75.743 182.53 74.943 184.511 74.443 186.7C74.243 187.535 73.543 188.682 74.743 189.099C75.743 189.411 75.843 188.056 76.143 187.43C76.943 185.658 77.443 183.781 78.343 182.008C81.343 175.648 86.943 172.415 92.643 169.496C92.443 171.894 91.843 173.979 91.343 176.065C90.943 177.733 91.243 179.193 92.643 180.236C94.143 181.278 95.543 180.653 96.843 179.819C98.343 178.88 99.443 177.629 100.543 176.273C102.843 173.25 105.043 170.121 107.543 167.306C109.143 165.534 110.343 162.927 113.343 162.718C113.343 164.491 111.943 165.117 111.543 166.368C111.243 167.202 109.943 167.932 110.843 168.662C111.743 169.392 112.643 168.349 113.343 167.619C114.943 165.638 116.543 163.657 118.143 161.676C118.843 160.841 119.443 160.216 120.643 160.946C125.443 163.761 130.043 162.51 134.543 159.903C135.543 159.277 136.243 158.13 137.943 158.443C137.243 162.927 137.043 167.306 137.743 171.79C137.843 172.415 137.843 173.458 138.843 173.145C139.543 172.937 139.343 172.103 139.243 171.581C138.443 166.159 138.743 160.841 140.443 155.628C140.543 154.898 140.743 154.272 140.243 153.96Z" fill="currentColor"/>
<path d="M354.143 135.087C353.843 135.087 353.543 135.608 353.243 135.817C349.543 138.528 345.243 138.006 342.243 134.461C340.043 131.959 339.343 128.831 339.043 125.598C338.943 124.764 339.443 123.513 338.243 123.2C337.343 122.992 336.943 123.93 336.343 124.556C331.443 129.456 326.543 134.357 321.643 139.258C321.343 139.049 321.143 138.841 320.843 138.632C321.143 137.694 321.343 136.651 321.743 135.713C324.643 127.892 327.643 120.072 330.543 112.252C331.143 110.583 331.543 109.228 328.943 110.166C328.343 110.375 327.543 110.792 327.343 109.645C327.043 107.872 325.743 108.394 324.743 108.394C321.343 108.602 318.343 109.958 315.643 111.939C310.443 115.797 306.543 120.906 303.143 126.433C303.243 126.537 303.343 126.641 303.343 126.641C303.243 126.537 303.143 126.433 303.143 126.433C302.943 126.745 302.743 127.058 302.543 127.371C301.643 128.726 300.843 130.291 299.643 131.333C291.943 137.902 284.043 144.158 275.343 149.268C274.943 149.476 274.443 149.685 273.943 149.893C272.843 150.206 271.743 150.415 271.143 149.059C270.543 147.704 271.343 146.974 272.443 146.348C275.043 144.784 277.443 143.011 279.443 140.613C280.643 139.258 281.443 137.694 281.543 135.921C281.643 133.314 280.343 132.48 278.243 133.731C274.843 135.713 271.743 138.424 270.943 142.386C270.043 146.557 267.243 147.391 264.143 148.121C261.843 148.642 259.443 148.851 257.043 149.163C255.743 149.372 255.143 148.955 255.443 147.495C260.843 136.547 266.143 125.703 271.543 114.754C271.843 114.233 272.243 113.607 271.743 112.982C271.043 112.252 270.443 112.982 269.943 113.399C268.243 114.65 266.643 116.11 264.843 117.257C263.943 117.778 263.143 120.072 261.943 117.987C261.043 116.527 259.343 114.546 262.343 112.982C265.143 111.522 267.143 108.915 269.143 106.413C269.543 105.891 270.343 105.266 269.643 104.536C268.843 103.806 268.443 104.744 268.043 105.266C266.143 107.56 264.243 109.749 261.743 111.418C261.043 111.835 260.243 112.982 259.543 111.835C258.943 110.896 257.943 109.749 258.743 108.394C259.143 107.664 259.743 107.143 260.343 106.517C272.243 93.4832 284.143 80.4495 296.043 67.4157C297.943 65.3303 299.843 63.1407 300.243 60.0126C300.543 56.9888 299.743 56.1546 296.843 56.1546C288.943 56.1546 281.443 58.24 274.343 61.7852C273.143 62.4108 272.243 63.0364 271.143 61.3681C265.143 52.9222 256.543 51.0454 247.243 51.4625C241.743 51.7753 238.443 56.3631 238.743 62.2022C238.843 64.9133 239.543 67.52 240.543 70.0225C245.343 81.5965 250.043 93.1704 254.943 104.64C256.143 107.351 256.343 109.332 253.843 111.313C253.043 111.939 251.643 112.773 252.043 113.92C252.543 115.38 254.243 114.963 255.543 115.171C256.343 115.276 257.143 115.067 257.943 114.963C258.643 114.859 259.043 115.067 259.443 115.693C261.443 118.508 261.343 120.385 258.843 122.783C257.843 123.722 256.843 124.868 255.943 125.911L255.843 126.12C252.543 129.561 249.143 132.897 245.843 136.338C234.843 148.121 223.843 160.007 212.943 171.894C212.043 172.624 211.243 173.354 210.343 174.188C208.343 174.292 206.343 174.501 204.343 174.501C199.743 174.605 195.143 173.98 190.943 171.998C187.543 170.434 186.743 168.87 187.543 165.117C188.943 158.443 192.043 152.709 196.343 147.599C206.043 136.234 217.743 127.475 230.543 120.176C233.043 118.821 235.743 118.091 238.443 117.361C240.543 116.84 241.043 117.465 240.243 119.446C238.443 123.93 235.643 127.371 231.743 130.082C231.243 130.395 230.143 130.812 230.643 131.646C231.243 132.689 232.043 131.855 232.643 131.438C237.543 128.101 240.743 123.513 242.543 117.778C243.243 115.588 242.543 115.067 240.343 115.38C235.743 116.006 231.443 117.57 227.443 119.968C217.043 126.224 207.443 133.731 198.843 142.49C192.843 148.642 188.143 155.628 186.043 164.283C184.843 169.287 185.843 171.477 190.443 173.667C195.343 175.961 200.443 176.378 205.643 176.274C206.443 176.274 208.143 175.231 207.843 177.525C207.943 177.525 208.143 177.525 208.243 177.421C208.343 177.316 208.543 177.316 208.643 177.316C208.543 177.421 208.343 177.421 208.243 177.421C208.143 177.421 207.943 177.525 207.843 177.525C207.643 177.733 207.543 177.838 207.343 178.046C207.143 178.359 206.943 178.567 206.643 178.88C206.043 179.089 205.543 179.61 205.343 180.236C204.743 180.861 203.443 181.383 204.043 182.321C204.743 183.468 205.643 182.217 206.243 181.696C210.643 178.568 215.543 176.169 220.343 173.875C220.943 173.667 221.643 173.563 222.243 173.354C222.843 173.145 223.643 172.937 223.343 171.998C223.043 171.164 222.343 171.581 221.843 171.686C220.543 171.998 219.243 172.416 217.943 172.833C216.643 172.937 215.343 173.354 214.143 173.875C215.743 169.913 219.143 167.515 221.843 164.595C233.243 152.083 244.843 139.779 256.343 127.371C256.543 127.162 256.743 126.954 256.943 126.745H256.843C257.143 126.537 257.443 126.224 257.643 126.015C261.143 123.513 263.843 119.864 268.243 117.153C263.943 127.788 258.843 136.86 254.543 146.348C254.243 146.974 253.943 147.704 253.643 148.329C253.543 148.538 253.343 148.746 253.243 148.955C252.943 149.58 252.643 150.206 252.443 150.727C248.843 157.401 245.843 164.387 244.743 172.103C244.643 172.833 244.243 173.875 245.343 174.188C246.143 174.397 246.443 173.458 246.843 172.833C249.043 168.87 250.443 164.7 250.743 160.216C250.943 156.567 252.443 153.751 254.643 151.144H254.943L255.143 151.04C255.643 150.936 256.043 150.832 256.543 150.727C259.843 150.623 263.143 150.31 266.243 149.268C267.943 148.642 269.543 147.912 270.543 150.519C271.043 151.77 272.443 151.77 273.743 151.666C275.443 151.457 276.943 150.623 278.443 149.685C284.443 145.931 290.043 141.552 295.643 137.381C295.943 137.589 296.143 137.798 296.443 138.006C293.043 145.618 289.643 153.23 287.543 161.363C287.343 162.093 286.343 163.24 287.643 163.761C288.743 164.283 289.043 162.823 289.443 162.093C293.143 155.628 296.643 149.163 299.743 142.386C300.543 140.718 301.243 138.945 302.743 137.798C302.443 137.694 302.243 137.694 301.943 137.798C302.243 137.798 302.543 137.694 302.743 137.798C303.243 137.694 303.743 137.485 304.043 136.964C304.243 136.86 304.343 136.651 304.543 136.547C304.843 136.338 305.143 136.025 305.443 135.817C305.743 135.504 306.043 135.087 306.343 134.774C306.643 134.67 306.943 134.566 307.143 134.566C307.343 134.566 307.443 134.461 307.543 134.253C314.043 129.248 319.243 122.992 323.843 116.214C325.043 114.337 326.543 113.086 329.243 112.669C326.143 120.906 323.143 128.831 320.243 136.755C319.643 138.319 317.643 140.509 319.443 141.76C321.343 143.22 323.043 140.822 324.443 139.466C328.343 135.608 332.243 131.646 336.043 127.788C337.243 126.537 337.943 126.537 338.243 128.414C338.543 130.186 339.043 131.855 339.943 133.419C341.343 136.025 343.243 137.694 345.843 138.945C349.143 140.509 352.243 138.215 355.543 138.632C356.543 138.736 357.843 135.713 359.043 134.044C356.543 132.376 355.843 135.4 354.143 135.087ZM277.543 135.921C278.243 135.4 278.943 134.357 279.843 135.087C280.543 135.713 280.143 136.86 279.643 137.694C277.843 140.613 275.543 142.907 271.643 144.054C273.043 140.405 274.943 137.798 277.543 135.921ZM270.843 65.6432C271.143 69.814 270.343 73.1506 267.243 75.3403C265.943 76.2787 264.343 77.1129 262.943 75.5488C261.543 73.8805 262.543 72.4207 263.743 71.1695C265.643 69.0841 267.943 67.4158 270.843 65.6432ZM257.743 112.982C256.943 114.441 255.543 113.712 253.943 113.712C254.843 112.252 255.443 110.792 256.843 110.896C257.543 110.896 258.143 112.252 257.743 112.982ZM258.043 106.413C257.943 106.517 257.743 106.621 257.443 106.726C256.443 105.891 256.243 104.64 255.743 103.493C251.243 92.6491 246.643 81.805 242.143 70.9609C241.043 68.1457 240.043 65.3304 239.843 62.3065C239.543 57.1973 242.043 53.6521 246.843 53.1308C254.843 52.2966 262.043 54.4863 267.943 60.3254C270.543 62.9321 270.343 63.5578 267.443 65.7474C265.843 66.9987 264.243 68.2499 262.643 69.5011C262.343 69.7097 262.143 69.9182 261.843 70.231H261.943C260.943 71.8994 260.243 73.672 260.643 75.6531C260.643 76.1744 260.743 76.6958 261.343 76.8C261.543 77.4257 261.943 77.5299 262.443 77.5299C262.543 77.8427 262.643 78.3641 262.843 78.4684C263.443 78.5726 263.443 77.947 263.543 77.5299C263.943 77.7385 264.443 77.8427 264.843 78.0513C265.843 79.094 266.643 78.9897 267.043 77.5299C267.643 77.6342 268.043 77.5299 268.243 76.8C267.843 77.0086 267.443 77.2171 267.043 77.5299C267.443 77.3214 267.843 77.1128 268.243 76.8C269.043 75.8616 269.943 74.8189 270.743 73.8805C271.043 74.1933 271.343 74.5061 271.643 73.9848C271.843 73.5677 271.443 73.3591 271.043 73.1506C271.643 71.378 272.243 69.6054 272.043 67.7286C271.643 65.3304 272.543 64.0791 274.643 63.2449C277.143 62.2022 279.443 60.8468 282.143 60.3254C282.743 60.1169 283.343 59.9083 283.943 59.8041C284.443 60.3254 284.843 60.1168 285.143 59.5955C288.643 58.24 292.343 58.24 296.043 57.9272C298.343 57.7187 298.543 59.0742 298.143 60.8468C297.743 62.5151 296.843 63.8706 295.743 65.1218C283.343 78.7812 270.743 92.6491 258.043 106.413ZM301.143 134.983C300.843 135.713 300.543 136.442 300.243 137.172C297.443 142.282 295.543 147.808 292.043 152.396C294.043 145.618 297.143 139.362 300.643 133.314C300.843 133.002 301.143 132.48 301.443 132.897C301.643 133.21 301.543 133.836 301.543 134.357C301.443 134.566 301.243 134.774 301.143 134.983ZM305.743 132.584C306.143 132.376 306.543 132.272 306.743 132.376C306.543 132.272 306.243 132.376 305.743 132.584ZM308.043 130.603C311.043 126.433 314.143 122.366 318.243 119.238C318.443 119.446 318.543 119.551 318.743 119.759C315.743 123.93 312.343 127.788 308.043 130.603ZM322.343 113.92C316.543 117.987 311.743 123.096 307.343 128.518C306.643 129.352 306.043 130.395 304.643 130.082C304.743 129.248 306.043 128.309 304.443 127.579C309.243 119.342 314.843 111.939 324.943 109.645C324.543 111.835 323.543 112.982 322.343 113.92Z" fill="currentColor"/>
<path d="M212.843 200.151C198.643 201.298 184.943 204.739 171.243 208.493C170.343 208.701 168.443 208.493 168.843 209.953C169.243 211.412 170.743 210.161 171.643 209.953C182.143 207.346 192.443 204.322 203.243 202.967C205.243 202.132 207.243 202.237 209.843 201.82C208.243 203.384 206.743 203.801 205.243 204.322C198.943 207.659 192.843 211.412 187.343 216.105C186.643 216.73 185.243 217.147 185.543 218.294C185.843 219.441 187.143 219.337 188.143 219.545C191.943 220.692 195.743 220.901 199.643 220.692C200.243 220.692 200.943 220.38 201.143 221.214C201.343 221.839 200.743 222.048 200.443 222.465C199.843 223.195 198.143 223.299 198.843 224.55C199.443 225.593 200.843 224.968 201.943 224.759C202.643 224.655 203.343 224.446 203.843 224.029C205.743 222.465 206.343 223.612 206.743 225.385C207.443 237.48 205.043 249.262 204.143 261.253C204.143 261.775 204.043 262.296 203.743 262.713C202.143 265.111 202.143 270.951 203.943 273.87C205.043 273.14 204.443 271.785 204.843 270.846C205.243 270.012 204.343 268.657 205.943 268.448C205.943 269.908 206.843 270.116 207.943 269.804C208.743 269.595 208.943 268.761 208.643 268.135C208.143 267.093 207.343 266.675 206.343 267.614C204.843 266.884 205.443 265.528 205.543 264.382C206.343 256.144 207.243 247.907 207.943 239.67C208.443 234.143 209.343 228.617 207.543 223.091C207.843 221.839 206.043 220.588 207.643 219.441C208.243 219.024 209.043 218.607 208.443 217.773C207.943 217.043 207.143 217.669 206.543 217.877C205.043 218.19 203.643 218.607 202.143 218.816C197.543 219.65 192.943 219.441 188.443 217.877C188.543 217.46 188.643 217.147 188.743 217.043C189.343 216.522 189.943 216 190.643 215.479C197.643 210.057 205.243 205.886 213.443 202.549C214.743 202.028 217.243 202.132 216.943 200.464C216.543 199.109 214.243 200.047 212.843 200.151Z" fill="currentColor"/>
<path d="M129.443 106.413C127.443 110.688 124.843 114.441 120.543 116.422C118.943 117.152 117.943 117.048 117.743 114.963C117.543 112.982 117.043 111.105 116.743 109.124C116.443 109.853 116.043 110.479 115.743 111.209C115.943 112.669 116.043 114.129 116.243 115.484C116.843 119.029 117.343 119.551 120.543 118.091C128.743 114.546 131.643 106.83 134.043 98.8008C134.843 96.4026 135.743 93.9002 136.543 91.502C138.743 84.2031 140.943 77.0084 143.143 69.7096C142.843 69.1882 142.643 68.6669 142.343 68.1455C141.143 71.8992 139.943 75.653 138.643 79.3024C135.543 88.3739 133.443 97.7582 129.443 106.413Z" fill="currentColor"/>
<path d="M157.743 24.7692H157.843L157.743 24.6649C157.843 24.3521 157.843 24.0393 157.943 23.7265C159.043 21.6411 159.543 19.4514 159.943 17.1575C160.243 16.3233 160.443 15.3849 160.743 14.5507L160.843 14.4465L160.743 14.2379C160.843 13.8208 161.043 13.508 161.143 13.091C162.343 9.33725 163.543 5.68779 164.743 1.93407C164.943 1.30845 165.343 0.370038 164.443 0.0572285C163.543 -0.255581 163.343 0.787105 163.143 1.41272C161.743 6.0006 160.343 10.5885 158.943 15.2806C158.843 15.5934 158.743 15.9062 158.643 16.2191C157.543 18.7215 156.643 21.3283 156.143 24.0393C156.043 24.1436 155.943 24.2478 155.943 24.4564C155.943 24.7692 155.843 24.9777 155.843 25.2905C155.743 25.3948 155.643 25.6033 155.643 25.7076C154.943 26.646 154.643 27.793 154.543 28.94C154.443 29.0442 154.443 29.1485 154.443 29.2528C153.943 29.6699 153.843 30.1912 153.943 30.8168C153.843 31.2339 153.643 31.651 153.543 32.0681C153.443 32.2766 153.443 32.4851 153.343 32.6937C153.243 32.798 153.243 32.9022 153.243 33.0065C152.343 34.8833 151.643 36.7602 151.343 38.8456C149.343 44.2676 147.643 49.6897 146.143 55.216C145.643 56.8843 145.043 58.5526 144.543 60.2209C144.443 60.5337 144.343 60.9508 144.243 61.2636C143.643 61.785 143.543 62.5149 143.543 63.349C143.443 63.7661 143.243 64.1832 143.143 64.6003C143.043 64.8088 142.943 64.9131 143.043 65.2259C142.943 65.643 142.743 66.06 142.643 66.4771C142.443 67.1027 142.243 67.7284 142.043 68.354C142.343 68.8753 142.543 69.3967 142.843 69.918C143.043 69.7095 143.143 69.2924 143.343 69.1881C144.043 68.7711 143.843 69.5009 143.743 69.7095C143.443 71.1693 143.043 72.7333 142.643 74.1931C140.943 80.6578 139.343 87.1225 137.643 93.5873C136.343 95.3599 137.043 97.8624 135.743 99.6349C135.543 101.199 135.543 102.763 135.243 104.223C132.843 115.171 130.343 126.119 127.943 137.068C127.643 138.319 126.443 140.509 127.943 140.926C129.443 141.239 129.243 138.736 129.443 137.485C134.643 113.086 140.343 88.8951 146.743 64.9131C146.943 63.9746 147.343 63.1405 146.943 62.202C148.243 59.9081 148.543 57.1971 149.343 54.6946C152.443 44.6847 155.043 34.7791 157.743 24.7692ZM161.143 10.5885C161.143 10.6927 161.143 10.797 161.143 11.0056C161.143 10.9013 161.143 10.797 161.143 10.5885Z" fill="currentColor"/>
<path d="M103.243 100.049C103.243 99.9489 103.243 99.9489 103.243 100.049C103.243 99.9489 103.343 99.9489 103.243 100.049Z" fill="currentColor"/>
<path d="M116.543 107.56C116.443 106.725 116.443 105.891 116.343 104.953C116.243 100.782 116.043 96.6113 115.943 92.5447C115.943 91.8148 115.943 91.085 116.043 90.3551C116.143 90.0423 116.343 89.7295 116.443 89.4166C116.743 88.9996 117.243 88.6868 116.943 88.0611C116.443 87.3313 115.843 87.7483 115.443 88.1654C113.143 90.1466 110.743 91.9191 108.743 94.3173C108.543 94.5259 108.343 94.7344 108.043 94.943C107.843 95.1515 107.643 95.36 107.443 95.5686C107.243 95.7771 107.043 95.9856 106.743 96.1942L106.843 96.0899C106.643 96.2984 106.443 96.507 106.143 96.7155L106.243 96.6113C106.043 96.8198 105.843 97.0283 105.543 97.2369L105.643 97.1326C105.443 97.3411 105.243 97.5497 104.943 97.8625L105.043 97.7582C104.843 97.9668 104.643 98.1753 104.343 98.4881L104.443 98.3839C104.243 98.5924 104.043 98.8009 103.743 99.1138L103.843 99.0095C103.643 99.218 103.443 99.4265 103.243 99.7394C103.043 99.9479 102.843 100.156 102.643 100.365C101.343 101.303 100.243 102.659 99.3429 104.014C99.0429 104.327 98.8429 104.64 98.5429 104.953C98.3429 105.266 98.0429 105.578 97.8429 105.891C97.2429 106.204 96.8429 106.621 96.6429 107.247C96.4429 107.56 96.243 107.872 95.943 108.081C95.743 108.394 95.5429 108.707 95.3429 109.019C95.1429 109.228 94.8429 109.332 94.6429 109.541C94.3429 109.332 94.1429 109.124 93.8429 108.915C94.9429 105.474 95.8429 102.033 97.0429 98.5924C103.743 78.5726 110.843 58.7613 115.043 37.9074C116.343 31.3384 117.343 24.6651 117.843 17.8875C117.943 17.2619 118.243 16.2192 117.143 16.2192C116.343 16.2192 116.443 17.0534 116.343 17.679C116.243 18.0961 116.243 18.5131 116.243 18.9302C114.843 33.8408 111.643 48.2301 107.243 62.4108C102.043 78.8854 96.5429 95.2558 91.2429 111.626C92.1429 112.043 93.0429 112.356 93.5429 113.086C93.8429 113.503 93.9429 114.129 93.8429 114.963C94.6429 114.337 95.3429 113.607 95.8429 112.669V112.565C96.0429 112.356 96.243 112.147 96.443 111.939H96.3429C96.5429 111.73 96.8429 111.418 97.0429 111.209C97.5429 110.583 98.1429 109.958 98.6429 109.436C99.6429 109.228 100.043 109.645 99.5429 110.583C95.8429 116.944 92.1429 123.304 88.3429 129.665C88.2429 129.873 87.8429 129.769 87.2429 129.873C88.5429 125.598 89.8429 121.532 91.0429 117.465L91.1429 117.361H91.2429C92.1429 116.527 92.9429 115.797 93.8429 114.963C94.0429 114.129 93.8429 113.503 93.5429 113.086C93.0429 112.356 92.0429 112.043 91.2429 111.626C90.7429 112.877 89.9429 114.024 90.2429 115.484C88.2429 117.778 88.3429 120.802 87.6429 123.513C86.2429 128.726 84.9429 133.94 83.6429 139.153C83.4429 139.779 83.1429 140.717 84.1429 140.926C84.8429 141.134 85.0429 140.3 85.3429 139.779C90.6429 128.414 97.0429 117.674 103.643 107.038V106.934C103.843 106.725 104.043 106.413 104.143 106.204C104.743 105.683 105.243 105.161 105.343 104.327C105.543 104.119 105.743 103.91 105.843 103.597C108.443 100.052 111.043 96.507 113.643 92.9618C115.143 93.1704 114.643 94.4216 114.743 95.36C114.843 97.3412 114.843 99.4266 114.943 101.408C114.943 103.91 115.043 106.413 115.543 108.915C115.643 109.541 115.743 110.271 115.843 110.896C116.143 110.166 116.543 109.541 116.843 108.811C116.643 108.602 116.643 108.081 116.543 107.56ZM95.2429 110.062C95.1429 110.271 95.043 110.375 94.943 110.583C95.043 110.375 95.1429 110.166 95.2429 110.062ZM94.6429 111.001C94.4429 111.209 94.3429 111.522 94.3429 111.73C94.3429 111.418 94.4429 111.209 94.6429 111.001ZM102.143 102.972C102.243 103.18 102.343 103.389 102.543 103.493C102.343 103.389 102.243 103.285 102.143 102.972Z" fill="currentColor"/>
<path d="M84.843 328.82C85.043 329.029 85.243 329.237 85.443 329.446C85.643 328.925 85.443 328.716 84.843 328.82Z" fill="currentColor"/>
</svg>
